<svg width="48" height="48" viewBox="0 0 48 48" fill="none" xmlns="http://www.w3.org/2000/svg"><path d="M37.955 29.734c-.984-1.023-2.17-1.57-3.429-1.57-1.248 0-2.445.537-3.47 1.56l-3.206 3.191c-.263-.142-.527-.273-.78-.405-.366-.182-.71-.354-1.005-.537-3.003-1.904-5.732-4.386-8.35-7.598-1.268-1.6-2.12-2.948-2.74-4.316.833-.76 1.604-1.55 2.355-2.31.284-.283.568-.577.852-.86 2.13-2.128 2.13-4.883 0-7.01l-2.77-2.767c-.314-.314-.639-.638-.943-.962a47.887 47.887 0 00-1.908-1.884c-.984-.973-2.16-1.49-3.398-1.49s-2.435.517-3.45 1.49l-.02.02-3.45 3.475C.945 9.057.204 10.638.042 12.47c-.244 2.959.629 5.714 1.298 7.517 1.644 4.428 4.1 8.53 7.762 12.927 4.443 5.299 9.79 9.483 15.898 12.43 2.333 1.105 5.448 2.412 8.928 2.635.213.01.436.02.639.02 2.343 0 4.312-.84 5.854-2.512.01-.02.03-.03.04-.051.528-.638 1.137-1.216 1.776-1.834.436-.415.882-.85 1.319-1.307 1.004-1.043 1.532-2.259 1.532-3.505 0-1.256-.538-2.462-1.563-3.475l-5.57-5.582zm3.633 10.668c-.01 0-.01.01 0 0-.396.425-.802.81-1.238 1.236-.66.628-1.33 1.287-1.958 2.026-1.025 1.094-2.232 1.61-3.815 1.61-.152 0-.315 0-.467-.01-3.013-.192-5.813-1.367-7.913-2.37-5.743-2.776-10.785-6.717-14.975-11.711-3.46-4.164-5.773-8.013-7.305-12.147-.943-2.522-1.288-4.488-1.136-6.342.101-1.185.558-2.168 1.4-3.008l3.46-3.455c.497-.466 1.024-.72 1.542-.72.639 0 1.156.386 1.481.71l.03.03a51.191 51.191 0 011.827 1.814c.314.324.639.648.963.982l2.77 2.766c1.076 1.074 1.076 2.067 0 3.14-.294.294-.578.588-.872.872a53.17 53.17 0 01-2.547 2.472c-.02.02-.04.03-.05.05-.873.872-.71 1.723-.528 2.3l.03.091c.72 1.743 1.735 3.384 3.277 5.34l.01.01c2.8 3.444 5.753 6.128 9.01 8.185.416.263.842.476 1.247.679.366.182.71.354 1.005.537.04.02.081.05.122.07.345.173.67.254 1.004.254.842 0 1.37-.527 1.542-.7l3.47-3.464c.345-.344.893-.76 1.532-.76.629 0 1.146.395 1.46.74l.021.02 5.59 5.582c1.045 1.033 1.045 2.097.01 3.171zM25.943 11.418c2.658.446 5.073 1.702 7 3.627a12.907 12.907 0 013.633 6.99 1.36 1.36 0 001.349 1.135c.081 0 .152-.01.233-.02a1.37 1.37 0 001.126-1.581 15.617 15.617 0 00-4.392-8.46 15.656 15.656 0 00-8.472-4.386 1.377 1.377 0 00-1.583 1.115 1.353 1.353 0 001.106 1.58zm22.037 9.756c-.904-5.288-3.4-10.1-7.235-13.93C36.91 3.414 32.091.922 26.795.021a1.364 1.364 0 00-1.572 1.114 1.375 1.375 0 001.126 1.58c4.728.801 9.04 3.04 12.469 6.454 3.429 3.424 5.66 7.73 6.462 12.45a1.36 1.36 0 001.35 1.135c.08 0 .152-.01.233-.02a1.342 1.342 0 001.116-1.56z" fill="#D1C396"/></svg>