<svg width="48" height="48" viewBox="0 0 48 48" fill="none" xmlns="http://www.w3.org/2000/svg"><path d="M40.97 7.03A23.844 23.844 0 0024 0 23.844 23.844 0 007.03 7.03 23.844 23.844 0 000 24c0 6.41 2.496 12.438 7.03 16.97A23.844 23.844 0 0024 48c6.41 0 12.438-2.496 16.97-7.03A23.844 23.844 0 0048 24c0-6.41-2.496-12.438-7.03-16.97zm-.994 32.946A22.446 22.446 0 0124 46.594a22.446 22.446 0 01-15.976-6.618A22.446 22.446 0 011.406 24c0-6.035 2.35-11.709 6.618-15.976A22.446 22.446 0 0124 1.406c6.035 0 11.709 2.35 15.976 6.618A22.446 22.446 0 0146.594 24c0 6.035-2.35 11.709-6.618 15.976z" fill="#D1C396"/><path d="M37.171 8.628a20.166 20.166 0 00-13.9-4.858A20.173 20.173 0 009.687 9.686 20.174 20.174 0 003.77 23.272a20.167 20.167 0 004.858 13.9.701.701 0 00.991.075.703.703 0 00.076-.991 18.765 18.765 0 01-4.52-12.933 18.773 18.773 0 015.506-12.642 18.773 18.773 0 0112.641-5.505 18.764 18.764 0 0112.933 4.518.703.703 0 00.916-1.066zm2.201 2.201a.703.703 0 10-1.067.916 18.765 18.765 0 014.52 12.933 18.772 18.772 0 01-5.506 12.641 18.772 18.772 0 01-12.642 5.505 18.765 18.765 0 01-12.933-4.519.703.703 0 00-.916 1.067 20.155 20.155 0 0013.9 4.858 20.174 20.174 0 0013.586-5.916 20.174 20.174 0 005.916-13.586 20.167 20.167 0 00-4.858-13.9z" fill="#D1C396"/><path d="M24 6.764a.703.703 0 00-.703.703V9.72a.703.703 0 101.406 0V7.467A.703.703 0 0024 6.764zm0 30.812a.703.703 0 00-.703.703v2.254a.703.703 0 101.406 0V38.28a.703.703 0 00-.703-.703zm16.533-14.279H38.28a.703.703 0 000 1.406h2.254a.703.703 0 000-1.406zm-30.812 0H7.467a.703.703 0 000 1.406H9.72a.703.703 0 000-1.406zm1.614-7.421l-1.302-.752a.703.703 0 00-.703 1.218l1.302.752a.7.7 0 00.96-.258.703.703 0 00-.257-.96zM38.67 31.658l-1.302-.752a.703.703 0 00-.703 1.218l1.302.752a.7.7 0 00.96-.258.703.703 0 00-.257-.96zM32.618 9.073a.703.703 0 00-.96.257l-.752 1.302a.703.703 0 001.218.703l.752-1.302a.703.703 0 00-.258-.96zM16.837 36.408a.703.703 0 00-.961.257l-.752 1.302a.703.703 0 001.218.703l.752-1.302a.703.703 0 00-.258-.96zm22.09-21.026a.703.703 0 00-.96-.258l-1.302.752a.703.703 0 00.703 1.218l1.302-.752a.703.703 0 00.257-.96zM11.592 31.163a.703.703 0 00-.96-.257l-1.302.752a.703.703 0 00.703 1.218l1.302-.752a.703.703 0 00.257-.96zm5.502-20.531l-.752-1.302a.703.703 0 10-1.217.703l.751 1.302a.703.703 0 101.218-.703zm15.782 27.335l-.752-1.302a.703.703 0 10-1.218.703l.752 1.302a.703.703 0 101.218-.703zm.894-14.67h-7.68a2.216 2.216 0 00-1.387-1.388v-9.182a.703.703 0 00-1.406 0v9.182a2.216 2.216 0 00-1.388 1.388h-.915a.703.703 0 000 1.406h.915c.22.652.736 1.168 1.388 1.388v.915a.703.703 0 001.406 0v-.915a2.216 2.216 0 001.388-1.388h7.679a.703.703 0 100-1.406zM24 24.8a.8.8 0 010-1.6.8.8 0 010 1.6z" fill="#D1C396"/></svg>