<svg width="46" height="31" viewBox="0 0 46 31" fill="none" xmlns="http://www.w3.org/2000/svg"><path d="M43.64 0H2.36C1.062 0 0 1.073 0 2.385v26.23C0 29.927 1.062 31 2.359 31h41.282C44.938 31 46 29.927 46 28.615V2.385C46 1.073 44.938 0 43.64 0zm-.884 1.788l-18.399 13.95c-.33.255-.839.414-1.357.412-.518.002-1.026-.157-1.357-.411L3.244 1.789h39.512zM32.928 16.66l10.025 12.52c.01.012.023.021.033.033H3.014c.01-.012.023-.021.033-.034L13.072 16.66a.9.9 0 00-.131-1.258.878.878 0 00-1.244.132L1.769 27.93V2.906L20.582 17.17c.707.532 1.567.767 2.418.77.849-.003 1.71-.237 2.418-.77L44.23 2.906V27.93l-9.927-12.397a.878.878 0 00-1.244-.132.9.9 0 00-.131 1.258z" fill="#D1C396"/></svg>