<svg width="140" height="136" viewBox="0 0 140 136" fill="none" xmlns="http://www.w3.org/2000/svg"><g clip-path="url(#clip0_98_74)"><path fill-rule="evenodd" clip-rule="evenodd" d="M10.528 114.316v-3.812c0-.215-.072-.395-.325-.395H4.94c-.252 0-.324.18-.324.395v4.244c0 .144.036.144.108.251 2.92 2.518 6.13 5.035 8.978 7.624.973.863 1.442 2.122 1.442 3.416v4.963c0 2.661-2.344 4.998-4.94 4.998H4.94C2.235 136 0 133.77 0 131.074v-4.675c0-.216.18-.36.36-.36h3.894c.217 0 .361.18.361.36v4.567c0 .215.072.395.324.395h5.264c.253 0 .325-.18.325-.395v-4.927c0-.144-.036-.144-.108-.252-2.92-2.481-6.202-5.034-8.978-7.623A4.696 4.696 0 010 114.748v-4.279c0-2.661 2.38-4.999 4.94-4.999h5.263c2.705 0 4.94 2.194 4.94 4.927v3.883a.36.36 0 01-.36.36h-3.894c-.18.036-.361-.144-.361-.324zm7.824 21.252c0 .216.144.396.36.396h3.894a.36.36 0 00.36-.36v-9.493c0-.18.037-.252.109-.288l8.978-7.623c.973-.827 1.442-2.122 1.442-3.416v-4.28c0-2.661-2.38-4.998-4.94-4.998h-5.264c-2.704 0-4.94 2.194-4.94 4.927v25.135zm4.615-25.064c0-.215.072-.395.324-.395h5.264c.253 0 .325.18.325.395v4.244c0 .144-.036.144-.108.251l-5.805 4.855v-9.35zm18.352-.035c0-.324-.109-.396-.397-.396h-5.264a.361.361 0 01-.36-.36v-3.847c0-.216.18-.36.36-.36h5.264c2.524 0 5.012 2.445 5.012 4.963v20.569c0 2.732-2.236 4.926-4.94 4.926h-5.3c-2.56 0-4.94-2.301-4.94-4.998v-4.28c0-1.294.433-2.589 1.443-3.416l9.013-7.623c.072-.036.109-.18.109-.288v-4.89zm-.037 20.533c0 .215-.072.395-.324.395h-5.264c-.252 0-.324-.18-.324-.395v-4.244c0-.144.036-.144.108-.251l5.84-4.819-.035 9.314zm19.614-11.004l2.416 2.769c.83.971 1.514 2.229 1.514 3.488v9.349a.36.36 0 01-.36.36h-3.894a.361.361 0 01-.36-.36v-9.205c0-.216-.073-.324-.145-.396l-2.668-3.02-3.353 2.84c-.072.036-.108.108-.108.288v9.493a.36.36 0 01-.36.36h-3.895c-.216 0-.36-.18-.36-.396v-25.135c0-2.733 2.235-4.927 4.94-4.927h5.227c2.56 0 4.94 2.301 4.94 4.998v4.28c0 1.294-.433 2.589-1.443 3.416l-2.09 1.798zm-6.994-9.494c0-.215.072-.395.324-.395h5.264c.252 0 .325.18.325.395v4.244c0 .144-.036.144-.109.251l-5.804 4.855v-9.35zm30.862 25.1a.36.36 0 01-.36.36H80.51a.361.361 0 01-.36-.36v-29.738c0-.216.18-.36.36-.36h3.894c.216 0 .36.18.36.36v29.738zm13.917-21.288v-3.812c0-.215-.072-.395-.324-.395h-5.264c-.252 0-.325.18-.325.395v4.244c0 .144.037.144.109.251 2.92 2.518 6.129 5.035 8.977 7.624.974.863 1.442 2.122 1.442 3.416v4.963c0 2.661-2.343 4.998-4.94 4.998h-5.263c-2.704 0-4.94-2.194-4.94-4.926v-4.675c0-.216.18-.36.361-.36h3.894c.216 0 .36.18.36.36v4.567c0 .215.073.395.325.395h5.264c.252 0 .324-.18.324-.395v-4.927c0-.144-.036-.144-.108-.252-2.92-2.481-6.201-5.034-8.977-7.623a4.696 4.696 0 01-1.443-3.416v-4.279c0-2.661 2.38-4.999 4.94-4.999h5.264c2.704 0 4.939 2.194 4.939 4.927v3.883a.36.36 0 01-.36.36h-3.894c-.18.036-.36-.144-.36-.324zm12.331 0v-3.812c0-.215.072-.395.325-.395h5.191c.325 0 .397.072.397.395v4.891c0 .108-.036.252-.108.288l-9.014 7.623c-.973.827-1.442 2.122-1.442 3.416v4.28c0 2.697 2.38 4.998 4.94 4.998h5.264c2.704 0 4.939-2.194 4.939-4.926v-20.57c0-2.517-2.488-4.962-5.012-4.962h-5.191c-2.705 0-4.94 2.194-4.94 4.891v3.883c0 .216.18.36.361.36h3.894c.252 0 .396-.18.396-.36zm5.913 16.686c0 .215-.072.395-.324.395h-5.264c-.253 0-.325-.18-.325-.395v-4.244c0-.144.036-.144.108-.251l5.841-4.819-.036 9.314zm12.547 4.602a.36.36 0 01-.36.36h-3.894a.361.361 0 01-.361-.36v-29.738c0-.216.18-.36.361-.36h3.894c.216 0 .36.18.36.36v2.948l1.839-1.546c1.334-1.115 2.668-1.798 4.038-1.762 2.488.036 4.651 1.978 4.651 4.783v25.315c0 .216-.18.36-.361.36h-3.893a.361.361 0 01-.361-.36v-25.135c0-.324-.288-.432-.541-.216l-5.372 4.711v20.64zm-55.2-25.531v25.531a.36.36 0 01-.36.36h-3.894a.361.361 0 01-.36-.36v-25.531h-3.173a.361.361 0 01-.36-.36v-3.847c0-.216.18-.36.36-.36h10.852c.216 0 .36.18.36.36v3.847a.36.36 0 01-.36.36h-3.065zm64.286-19.598c0 .683-.289.899-.793.899h-.505v1.187h.433c.612 0 .865.287.865 1.078v.648c0 .755-.253.935-.685.935-.433 0-.685-.216-.685-.828v-.79h-1.262v.683c0 1.33.685 2.121 1.983 2.121s1.983-.755 1.983-2.121v-.648c0-.863-.253-1.474-.938-1.762.649-.251.938-.827.938-1.726v-.215c0-1.331-.685-2.122-1.983-2.122s-1.983.755-1.983 2.122v.467h1.262v-.504c0-.61.252-.827.685-.827.432 0 .685.216.685.971v.432zm-5.012-.468c0 2.446-2.632 2.841-2.632 5.322v1.043h3.822v-1.186h-2.524v-.18c0-1.367 2.632-2.374 2.632-4.999 0-1.33-.685-2.121-1.983-2.121s-1.983.755-1.983 2.121v.828h1.262V89.9c0-.612.252-.828.685-.828.469 0 .721.18.721.935zm-7.824 4.352c0 1.33.721 2.121 2.019 2.121s2.019-.755 2.019-2.121V89.97c0-1.33-.721-2.121-2.019-2.121s-2.019.755-2.019 2.121v4.388zm1.334-4.46c0-.61.253-.827.685-.827.433 0 .685.216.685.828v4.53c0 .612-.252.827-.685.827-.432 0-.685-.215-.685-.827V89.9zm-3.677.108c0 2.446-2.632 2.841-2.632 5.322v1.043h3.822v-1.186h-2.524v-.18c0-1.367 2.632-2.374 2.632-4.999 0-1.33-.685-2.121-1.983-2.121s-1.983.755-1.983 2.121v.828h1.262V89.9c0-.612.252-.828.685-.828.468 0 .721.18.721.935zM9.302 89.144h1.37v7.228h1.334v-7.228h1.37v-1.186H9.302v1.186zm-4.615.827c0 2.41 2.596 2.733 2.596 4.46 0 .61-.252.826-.685.826-.433 0-.685-.215-.685-.827v-.61H4.65v.503c0 1.33.685 2.121 1.983 2.121s1.983-.755 1.983-2.121c0-2.41-2.596-2.733-2.596-4.46 0-.61.253-.826.65-.826.432 0 .648.215.648.827v.36H8.58v-.253c0-1.33-.649-2.121-1.947-2.121-1.262 0-1.947.79-1.947 2.121zm-3.245-.827h2.272v-1.186H.108v8.414h3.606v-1.186H1.442v-2.482h1.803v-1.186H1.442v-2.374zm136.034-20.892l-1.694-.036v.287c0 .288 0 .504.036.684a.82.82 0 00.216.431c.108.108.288.18.577.18.252 0 .469-.036.613-.144a.683.683 0 00.252-.395c.036-.18.072-.396.072-.684l-.072-.323zm-5.372-1.906l6.814.18-.072 2.697c0 .503-.108.935-.288 1.294-.18.36-.433.648-.757.827-.325.18-.757.288-1.262.288-.397 0-.757-.072-1.046-.18a2.083 2.083 0 01-.721-.467 1.902 1.902 0 01-.396-.755 4.366 4.366 0 01-.109-1.043l.036-1.007-2.271-.072.072-1.762zm4.074-10.572a2.09 2.09 0 00-.432-.9c-.217-.251-.469-.467-.794-.575a1.949 1.949 0 00-.901-.108c-.397.072-.721.216-.973.432a1.653 1.653 0 00-.577.827 1.88 1.88 0 00-.072 1.007c.072.36.216.647.432.899.217.252.505.431.829.575a2.16 2.16 0 001.082.072c.289-.072.577-.18.829-.395.253-.216.433-.504.541-.827.072-.324.108-.684.036-1.007zm1.695-.288c.072.468.072.97 0 1.438a3.52 3.52 0 01-.505 1.33 3.251 3.251 0 01-.973 1.008 2.92 2.92 0 01-1.334.54 3.759 3.759 0 01-1.551 0 3.423 3.423 0 01-1.334-.576c-.396-.288-.721-.611-.973-1.043a4.563 4.563 0 01-.541-1.438 3.556 3.556 0 010-1.51c.108-.468.288-.936.577-1.331a3.36 3.36 0 011.045-.971 4.615 4.615 0 011.443-.54c.504-.072.973-.072 1.442.072.468.108.865.324 1.262.612.36.287.685.647.937 1.079.252.395.433.827.505 1.33zm-7.464-13.952l1.046 2.337 2.416-1.079.721 1.618-6.238 2.805-.721-1.618 2.56-1.15-1.045-2.338-2.56 1.15-.721-1.617 6.237-2.805.721 1.618-2.416 1.079zm-2.163-8.883l-1.55.144a1.76 1.76 0 00-.253-1.222 1.245 1.245 0 00-.396-.36c-.18-.072-.325-.072-.469.036-.144.108-.216.216-.216.396 0 .18.036.36.108.61l.144.468c.144.54.181 1.007.108 1.403-.072.395-.324.755-.757 1.007-.685.431-1.334.575-1.911.395-.649-.18-1.153-.611-1.586-1.294-.469-.72-.685-1.547-.649-2.446l1.622-.143c-.108.719-.036 1.258.253 1.69a.99.99 0 00.469.395c.18.072.396.072.576-.072.181-.108.253-.287.253-.503-.036-.216-.072-.504-.181-.827a5.592 5.592 0 01-.252-1.079c-.036-.288.036-.54.144-.791.145-.252.361-.503.721-.72a2.476 2.476 0 011.19-.395c.397-.036.793.072 1.118.288.36.18.649.503.901.863.181.288.361.647.469 1.007.072.431.144.79.144 1.15zM116.673 21.9l3.533-.395 1.514 1.582-4.218.288-.541 4.603-1.586-1.654.577-3.704-2.128 2.05-1.225-1.295 4.939-4.71 1.226 1.294-2.091 1.942zm-8.545-8.882l-.974 1.367.144.108c.181.144.361.251.541.287a.814.814 0 00.505.036c.18-.035.325-.143.469-.323.144-.18.18-.36.18-.54a1.114 1.114 0 00-.216-.467 1.708 1.708 0 00-.469-.396l-.18-.072zm-.108 3.165l.144 3.524-1.803-1.295.144-3.092-1.514 2.121-1.442-1.042 3.966-5.538 2.163 1.546c.361.252.649.575.865.9.217.323.289.682.289 1.042s-.18.755-.433 1.115c-.18.251-.396.467-.649.611-.252.144-.505.252-.793.252-.361.072-.649 0-.937-.144zm-10.997-9.17c-.325-.144-.65-.18-.974-.18a2.247 2.247 0 00-.937.324c-.288.18-.469.432-.613.683-.144.36-.216.683-.18 1.043.036.36.144.683.324.935.18.288.469.503.757.647.325.144.65.18.974.144.324-.036.649-.18.937-.36a2.08 2.08 0 00.65-.827 1.29 1.29 0 00.108-.899c-.037-.323-.18-.61-.361-.899-.108-.251-.36-.467-.685-.61zm.721-1.546c.433.216.83.467 1.19.827.36.36.613.72.793 1.15.18.432.288.9.288 1.367 0 .468-.108.935-.288 1.403a3.917 3.917 0 01-.865 1.258c-.36.36-.757.611-1.226.755a3.2 3.2 0 01-1.406.216 4.447 4.447 0 01-1.479-.36 3.928 3.928 0 01-1.261-.863 3.41 3.41 0 01-.794-1.222 3.18 3.18 0 01-.216-1.403 4.217 4.217 0 01.36-1.474c.217-.467.505-.827.866-1.15.36-.324.757-.54 1.226-.684.468-.144.937-.18 1.406-.18.505.036.973.144 1.406.36zm-18.64-5l.396 4.531L81.7.935l1.406.252.54 4.567 2.056-4.1 1.802.324-3.353 6.329-1.766-.324-.469-4.1h-.036l-2.02 3.669-1.766-.324L77.301.18l1.803.287zM61.149 3.164l2.56-.323-.325-2.625L65.151 0l.865 6.76-1.767.216-.36-2.769-2.56.324.36 2.769-1.766.216-.866-6.76 1.767-.217.325 2.625zm-9.843.971l1.442 5.107-1.695.467-1.442-5.106-1.406.395-.397-1.438 4.471-1.295.397 1.439-1.37.431zm-10.168 6.94l-1.622-1.618.324 2.266 1.298-.647zm1.046.972L40.02 13.16l.108 1.259-1.695.863-.793-7.264 1.73-.899 5.409 4.89-1.695.864-.901-.828zm-14.386 4.17l.83 1.044.144-.108c.216-.18.396-.36.468-.54.072-.18.036-.36-.108-.575-.18-.216-.36-.288-.54-.252-.181.036-.433.18-.686.36l-.108.072zm4.146 3.705l-2.163 1.69-4.218-5.358 1.983-1.546c1.045-.828 1.947-.792 2.704.143.433.54.505 1.043.288 1.547.397-.252.793-.324 1.154-.216.36.108.685.324 1.01.72.396.502.504 1.042.324 1.581-.144.504-.54 1.007-1.082 1.439zm-2.487-1.619l.901 1.151.18-.144c.36-.287.577-.503.721-.755.145-.215.108-.467-.072-.683-.18-.252-.396-.324-.613-.288a2.57 2.57 0 00-.757.396l-.252.18-.108.143zm-8.293 12.335l-.865.108c-.036.97-.253 1.762-.685 2.373a2.374 2.374 0 01-.83.755 2 2 0 01-1.01.252c-.36 0-.684-.144-1.009-.36-.396-.287-.613-.611-.72-.97-.109-.36-.073-.828.035-1.331l.036-.18h-.685c-.108 0-.252-.036-.396-.072a1.22 1.22 0 01-.433-.216c-.324-.215-.505-.503-.649-.827a1.897 1.897 0 01-.072-1.007 2.35 2.35 0 01.433-.97c.216-.288.468-.54.793-.72.324-.18.649-.251.973-.251.36 0 .685.107.974.323.324.216.505.504.577.827.072.324.072.72 0 1.151l1.226-.18c-.037-.54-.109-.935-.253-1.294l1.37-.252.253 1.223.036.107 2.199-.323-1.298 1.834zm-4.615-.971c.036-.216 0-.396-.036-.576a.715.715 0 00-.288-.431.548.548 0 00-.47-.108c-.18 0-.288.108-.396.252-.108.144-.144.288-.108.431.036.144.108.288.216.36a.758.758 0 00.397.144c.18-.036.397-.036.685-.072zm2.344 1.258l-1.587.18c0 .216 0 .432.036.611a.59.59 0 00.253.396.583.583 0 00.324.108.697.697 0 00.36-.108.978.978 0 00.29-.252 2.07 2.07 0 00.324-.935zM9.915 45.237l-2.271-.107 1.766 1.474.505-1.367zm1.442.072l-.901 2.266.937.863-.685 1.762-5.372-4.927.721-1.798 7.283.108-.72 1.726h-1.263zM3.605 57.823l1.659.288.036-.288c.036-.287.072-.503.072-.683a.721.721 0 00-.144-.467c-.108-.144-.289-.216-.54-.252-.253-.036-.47-.036-.614.072a.571.571 0 00-.288.36c-.072.143-.108.395-.18.683v.287zm5.012 2.697l-6.706-1.186.469-2.661c.072-.504.252-.9.468-1.259.217-.324.505-.575.902-.72.36-.143.793-.179 1.298-.071.396.072.72.18 1.01.324.252.143.468.36.612.575.144.252.252.503.289.827.036.324.036.647-.037 1.043l-.18 1.007 2.236.395-.36 1.726zm-7.03 6.437l1.406.683c-.289.36-.433.756-.433 1.187 0 .18.072.36.18.504.108.143.253.251.433.215.18 0 .288-.072.396-.216.073-.143.18-.323.253-.575l.108-.467c.144-.54.36-.971.649-1.259.288-.288.685-.467 1.19-.467.829-.036 1.442.18 1.839.647.432.503.685 1.15.685 1.906.036.863-.217 1.654-.722 2.41l-1.442-.72c.469-.54.685-1.079.685-1.582a1.21 1.21 0 00-.18-.612c-.108-.18-.288-.251-.505-.251-.216 0-.36.108-.468.287-.109.216-.18.468-.289.791-.108.432-.216.791-.36 1.043a1.27 1.27 0 01-.541.612c-.253.143-.577.215-.974.251-.468 0-.865-.072-1.226-.287-.36-.18-.612-.468-.829-.828-.216-.36-.288-.755-.324-1.186 0-.36.036-.72.108-1.115.072-.324.18-.647.36-.97zm96.265 4.675c.144-1.15.144-2.23.036-3.272a10.71 10.71 0 00-.324-1.619c-.325-1.114-.793-1.977-1.37-2.553-.217-.216-.433-.395-.613-.431-.974.611-2.272.431-2.993-.468-.18-.252-.324-.503-.396-.79-.145-.612-.65-1.08-1.37-1.44-1.154-.539-2.74-.754-4.471-.682-.541.035-1.118.071-1.695.18.433.934.289 1.87.18 2.84-.072.611-.144 1.223.145 1.474.216.18.757.037 1.37-.107 1.55-.36 3.209-.755 5.12.827 2.127 1.798 1.658 3.452 1.225 4.962-.144.432-.252.863-.144.935.18.144.685 0 1.226-.108 1.334-.323 2.668-.647 4.074.252zm-3.894 7.875c1.298-1.402 2.236-2.84 2.885-4.315 0-.288-.109-.575-.325-.791-.505-.54-1.262-.36-1.947-.18-1.37.324-2.668.647-4.074-.575-1.442-1.295-1.118-2.517-.721-3.848.18-.683.397-1.402-.288-2.014-.686-.575-1.55-.36-2.344-.18-1.442.36-2.74.648-4.182-.575-1.443-1.258-1.298-2.589-1.118-3.955.072-.648.144-1.331-.288-1.69-.18.071-.325.143-.505.18-1.73.718-3.101 1.761-3.57 2.948 1.875 1.366 1.695 2.877 1.515 4.387-.072.611-.145 1.223.144 1.474.216.18.793.072 1.37-.072 1.55-.36 3.209-.755 5.12.864 2.127 1.797 1.658 3.452 1.262 4.962-.109.431-.253.863-.145.935.18.144.722.036 1.262-.108 1.587-.396 3.281-.791 5.012 1.115.469.431.757.935.937 1.438zm-20.875-.467a24.27 24.27 0 01-.469 1.51c-.18.647-.397 1.259-.577 1.906-.18.683-.36 1.438-.433 2.193.18 1.798.037 3.596-.144 5.107 2.524-1.187 6.093-2.661 9.483-3.416.793-.18 1.622-.324 2.415-.504l1.082-.216c-.397-.072-.865 0-1.334.072-1.442.216-2.849.396-4.255-.827-1.478-1.294-1.19-2.553-.829-3.92.18-.683.36-1.438-.288-2.013-.685-.576-1.55-.396-2.344-.18-.793.18-1.55.36-2.307.288zm.54-12.37c-.684.36-1.334 1.006-1.91 1.87 2.235 2.445 2.56 4.926 2.09 7.551.253-.036.505-.108.794-.18 1.55-.36 3.245-.791 5.156.863 1.947 1.69 1.55 3.308 1.19 4.783-.109.503-.253 1.007-.072 1.15.324.288 1.045.216 1.766.108 1.587-.215 3.209-.431 4.76 1.223.216.216.36.504.396.791 1.478-.467 2.776-1.079 3.677-2.014-.396-.36-.612-.899-.468-1.438.072-.288.108-.54.072-.791-.036-.216-.144-.396-.325-.611-.504-.576-1.261-.36-1.983-.216-1.37.323-2.668.647-4.074-.576-1.442-1.294-1.117-2.517-.757-3.847.18-.683.397-1.439-.324-2.014-.722-.575-1.587-.395-2.38-.216-1.442.324-2.776.648-4.182-.611-1.443-1.259-1.298-2.59-1.118-3.956.072-.683.18-1.366-.36-1.762a1.604 1.604 0 00-.83-.323c-.288-.036-.649.036-.973.144a.274.274 0 01-.144.072zm-20.37-6.761c-1.01-.108-1.875-.108-2.524.036l-.469.108c0 .935-.649 1.798-1.658 2.05-.36.072-.758.072-1.082 0-1.19-.288-2.308.072-3.281.79-.901.684-1.658 1.727-2.235 2.877-.577 1.187-.902 2.518-.902 3.74 0 1.115.217 2.158.757 2.985.866-.252 1.767-.144 2.668-.072.65.072 1.262.144 1.55-.144.181-.215.037-.719-.107-1.294-.397-1.475-.794-3.057.865-4.89 1.875-2.015 3.605-1.583 5.192-1.188.468.108.901.216.973.144.145-.144.036-.647-.108-1.186-.36-1.223-.721-2.553.36-3.956zm-5.409 22.87c1.19.792 2.524 1.51 3.966 2.086 1.37-1.51 2.885-1.366 4.363-1.186.649.071 1.298.143 1.55-.144.18-.216.072-.755-.108-1.33-.396-1.511-.829-3.093.938-4.927 1.766-1.834 3.46-1.475 5.011-1.151.541.108 1.046.216 1.19.072.325-.324.216-1.007.108-1.654-.216-1.51-.468-3.057 1.262-4.531a1.55 1.55 0 01.83-.36 14.597 14.597 0 00-2.2-3.416c-.36.324-.901.467-1.442.36-.289-.072-.577-.108-.83-.072-.216.036-.432.144-.648.323-.577.504-.397 1.223-.217 1.906.36 1.295.685 2.553-.613 3.884-1.334 1.402-2.632 1.079-4.038.719-.72-.18-1.478-.396-2.127.288-.613.683-.397 1.51-.216 2.265.36 1.367.685 2.625-.65 3.992-1.333 1.366-2.74 1.222-4.145 1.078-.722-.071-1.443-.143-1.84.324a1.56 1.56 0 00-.36.791c.108.18.144.432.216.683zm21.2-10.428l-.108-.216.109.216zm.073.216l-.109-.216.109.216zm-1.046 7.911v-.108l.036-.144.036-.144.036-.143.036-.144.036-.144.036-.144.036-.144.037-.144.036-.143.036-.144.036-.144.036-.144.036-.144.036-.144.036-.143.036-.144.036-.144.036-.144.036-.144.036-.144.036-.143.036-.144.036-.144.036-.108.036-.108.037-.108.036-.108.036-.108v-1.33c-.036-.575-.109-1.15-.325-1.69l-.108-.216-.108-.216c-.108-.18-.18-.36-.325-.503v.036l-.036.036v.036c-.505.431-.396 1.186-.288 1.942v2.876l-.036.036-.036.072-.036.036-.036.036-.037.036v.036l-.035.072v.036l-.037.036-.036.036-.036.072c-.144.18-.288.395-.468.575-1.37 1.403-2.704 1.115-4.11.791-.722-.144-1.515-.323-2.092.288-.613.647-.396 1.474-.216 2.23.36 1.366.685 2.624-.613 3.991a3.993 3.993 0 01-1.406.935c3.137.54 6.13 2.122 8.364 3.38-.072-2.445.037-5.681.83-8.45.036-.648.108-.971.216-1.259zm-24.878-3.956c-.108.144-.18.288-.18.432-.072.54.217 1.259.757 2.05.325.503.757 1.007 1.262 1.51.144-.36.36-.683.613-1.007 1.442-1.834 3.029-1.654 4.615-1.474.65.072 1.298.144 1.55-.144.217-.216.073-.755-.072-1.33-.396-1.475-.793-3.057.902-4.891 1.875-2.05 3.641-1.582 5.192-1.187.468.108.9.216.973.144.144-.18.036-.683-.108-1.187-.397-1.51-.83-3.128 1.154-4.782.685-.576 1.406-.863 2.163-1.007h.036a15.392 15.392 0 00-1.586-1.079c-.18-.036-.325-.108-.505-.18-.757-.467-1.659-1.007-2.452-1.222-.54-.144-1.082-.144-1.514.215-.577.468-.36 1.187-.18 1.87.36 1.295.685 2.553-.613 3.884-1.334 1.402-2.632 1.043-4.039.683-.72-.18-1.478-.395-2.09.288-.614.647-.397 1.474-.181 2.23.36 1.366.685 2.624-.613 3.99-1.334 1.367-2.74 1.224-4.146 1.08-.144 0-.325-.036-.469-.036-.036.395-.144.827-.432 1.15h-.037zm22.174-29.918c.288-.504 1.586-.863 2.307-1.007.902-.18 1.84-.288 2.344-.791.505.54 1.442.611 2.344.791.72.144 2.019.54 2.307 1.007-.216.467-1.226 1.15-2.127 1.007-.901-.18-1.37-.647-2.488-.647-1.118 0-1.586.503-2.488.647-.973.18-1.983-.54-2.199-1.007zm11.718-1.115c.793-4.315 1.406-4.171 1.514-5.645.18-1.978-.325-2.662-.685-3.453-.144.036-1.91-.287-1.91.432-.037.899-1.119.863-2.02.863-1.01 0-1.839-.468-2.92-.575.036-.576.216-2.158.829-2.122 1.73.108 3.209-.611 5.156-.575.18 0 .36.215.504.467 0-.324.037-.683.109-1.115-2.452-1.438-5.048-2.121-7.68-2.157-2.596 0-5.228.719-7.68 2.157a6.8 6.8 0 01.108 1.115c.145-.252.325-.431.505-.468 1.947-.035 3.461.684 5.156.576.613-.036.793 1.546.83 2.122-1.082.107-1.912.575-2.921.575-.901 0-1.983.036-2.02-.863-.035-.683-1.766-.36-1.91-.432-.36.791-.865 1.475-.685 3.453.144 1.474.721 1.366 1.514 5.645.18.18.397.252.577.252.505 0-.036-.575.685-1.798 1.118-.575 3.065-2.158 4.11-1.474 1.118.719 2.272.755 3.39 0 1.045-.684 3.028.934 4.11 1.474.72 1.223.18 1.798.685 1.798.252 0 .468-.108.649-.252zm4.94-16.038C77.697 26 76.254 17.548 70.017 17.656c-6.418 0-7.716 8.379-12.042 11.795 8.112-4.998 14.638-5.178 24.048 0zM60.102 43.044c-.397 5.43-.18 8.127 3.642 14.132 2.956 1.223 5.047 2.301 6.237 2.301 1.19 0 3.245-1.006 6.165-2.193 3.93-6.077 4.147-8.702 3.786-14.24l.108-.647c.253-.108.469-.216.685-.36 1.623-.899 3.245-2.517 3.822-4.315.252-.755.325-1.474.216-2.158 0-.072.036-.108 0-.18 0-.215-.036-.467-.108-.683-.613-1.294-2.271-2.66-4.615-3.776-3.317-1.977-7.824-3.164-10.023-3.164-2.271 0-6.886 1.223-10.24 3.272a18.57 18.57 0 00-4.074 3.165c-.504 1.079-.613 2.23-.216 3.488.613 1.798 2.2 3.38 3.822 4.315.216.144.432.288.685.396l.108.647zm5.552 52.825c.541.54.721 1.222.794 2.014h7.138c.072-.791.253-1.475.794-2.014 1.838-1.007.108-1.906 2.56-2.553 1.334-.36 4.506-.36 6.49-.72a76.064 76.064 0 002.884-.539c6.598-1.33 15.503-7.12 19.83-12.118 1.081-1.259 1.73-1.978 1.298-3.92.036-1.618-1.731-8.846-4.255-11.112-1.19-3.991-4.038-10.716-11.357-10.608-2.416.036-4.327-2.085-7.68-2.23-2.09-.143-2.632-1.941-2.668-3.667 5.733-2.41 10.24-14.672 7.5-15.607-1.226-.431-4.327-2.625-5.192-4.926-3.209-6.94-6.201-12.73-13.737-12.694-7.607-.072-10.564 5.718-13.809 12.658-.865 2.265-3.966 4.495-5.192 4.926-2.74.935 1.803 13.306 7.572 15.643-.036 1.726-.541 3.488-2.74 3.668-3.317.108-5.264 2.265-7.68 2.23-7.32-.109-10.167 6.616-11.357 10.608-2.524 2.265-4.29 9.493-4.255 11.111-.432 1.942.18 2.661 1.298 3.92 4.327 4.998 13.232 10.788 19.83 12.118 1.082.216 2.056.396 2.885.54 1.983.36 5.155.36 6.49.719 2.451.647.72 1.546 2.56 2.553z" fill="#D8DADB"/></g><defs><clipPath id="clip0_98_74"><path fill="#fff" d="M0 0h140v136H0z"/></clipPath></defs></svg>