<svg width="82" height="80" viewBox="0 0 82 80" fill="none" xmlns="http://www.w3.org/2000/svg"><g clip-path="url(#clip0_98_664)"><path fill-rule="evenodd" clip-rule="evenodd" d="M6.166 67.245v-2.242c0-.127-.042-.233-.19-.233H2.893c-.148 0-.19.106-.19.233v2.496c0 .084.021.084.063.148 1.711 1.48 3.59 2.961 5.259 4.484.57.508.844 1.248.844 2.01v2.919c0 1.565-1.372 2.94-2.893 2.94H2.893C1.31 80 0 78.689 0 77.102v-2.75c0-.127.106-.211.211-.211h2.28c.128 0 .212.105.212.211v2.687c0 .126.042.232.19.232h3.083c.148 0 .19-.106.19-.232V74.14c0-.085-.02-.085-.063-.148-1.71-1.46-3.632-2.962-5.258-4.485A2.768 2.768 0 010 67.498v-2.517c0-1.565 1.394-2.94 2.893-2.94h3.083A2.9 2.9 0 018.87 64.94v2.285a.212.212 0 01-.21.211H6.377c-.106.021-.212-.084-.212-.19zm4.583 12.501c0 .127.084.233.211.233h2.28a.212.212 0 00.212-.212v-5.584c0-.106.021-.148.063-.17l5.259-4.484c.57-.486.844-1.248.844-2.01v-2.516c0-1.566-1.393-2.94-2.893-2.94h-3.083a2.9 2.9 0 00-2.893 2.897v14.786zm2.703-14.743c0-.127.042-.233.19-.233h3.083c.148 0 .19.106.19.233v2.496c0 .084-.02.084-.063.148l-3.4 2.855v-5.5zm10.749-.022c0-.19-.064-.232-.232-.232h-3.084a.212.212 0 01-.21-.212v-2.263c0-.127.105-.212.21-.212h3.084c1.478 0 2.935 1.439 2.935 2.92V77.08a2.9 2.9 0 01-2.893 2.898h-3.104c-1.5 0-2.894-1.354-2.894-2.94V74.52c0-.761.254-1.523.845-2.01l5.28-4.483c.042-.022.063-.106.063-.17V64.98zM24.18 77.06c0 .127-.043.232-.19.232h-3.083c-.148 0-.19-.105-.19-.232v-2.496c0-.085.02-.085.063-.148l3.42-2.835-.02 5.479zm11.488-6.473l1.415 1.629c.485.57.887 1.311.887 2.052v5.5a.212.212 0 01-.212.21h-2.28a.212.212 0 01-.212-.21v-5.416c0-.127-.042-.19-.084-.233l-1.563-1.776-1.964 1.67c-.042.022-.063.064-.063.17v5.584a.212.212 0 01-.211.212H29.1c-.127 0-.212-.106-.212-.233V64.96a2.9 2.9 0 012.893-2.898h3.062c1.5 0 2.893 1.354 2.893 2.94v2.518c0 .761-.253 1.523-.844 2.01l-1.225 1.057zm-4.097-5.584c0-.127.042-.233.19-.233h3.083c.148 0 .19.106.19.233v2.496c0 .084-.02.084-.063.148l-3.4 2.855v-5.5zm18.077 14.764a.212.212 0 01-.212.212h-2.28a.212.212 0 01-.211-.212V62.274c0-.127.105-.212.21-.212h2.282c.126 0 .21.106.21.212v17.493zm8.151-12.522v-2.242c0-.127-.042-.233-.19-.233h-3.083c-.148 0-.19.106-.19.233v2.496c0 .084.02.084.063.148 1.71 1.48 3.59 2.961 5.258 4.484.57.508.845 1.248.845 2.01v2.919c0 1.565-1.373 2.94-2.893 2.94h-3.083a2.9 2.9 0 01-2.893-2.898v-2.75a.21.21 0 01.21-.211h2.282a.21.21 0 01.21.211v2.687c0 .126.043.232.19.232h3.084c.148 0 .19-.106.19-.232V74.14c0-.085-.021-.085-.063-.148-1.71-1.46-3.633-2.962-5.258-4.485a2.768 2.768 0 01-.845-2.01V64.98c0-1.565 1.393-2.94 2.893-2.94h3.083a2.9 2.9 0 012.893 2.898v2.285a.212.212 0 01-.211.211h-2.28c-.106.021-.212-.084-.212-.19zm7.222 0v-2.242c0-.127.043-.233.19-.233h3.041c.19 0 .233.042.233.233v2.876c0 .064-.021.148-.064.17l-5.28 4.484c-.57.487-.844 1.248-.844 2.01v2.517c0 1.586 1.394 2.94 2.893 2.94h3.084a2.9 2.9 0 002.893-2.898v-12.1c0-1.48-1.457-2.918-2.936-2.918h-3.04c-1.585 0-2.894 1.29-2.894 2.876v2.285c0 .127.106.211.211.211h2.281c.148 0 .232-.105.232-.211zm3.464 9.815c0 .127-.043.232-.19.232H65.21c-.147 0-.19-.105-.19-.232v-2.496c0-.085.022-.085.064-.148l3.42-2.835-.02 5.479zm7.349 2.707a.212.212 0 01-.212.212h-2.28a.212.212 0 01-.211-.212V62.274c0-.127.105-.212.21-.212h2.282c.126 0 .21.106.21.212v1.734l1.078-.91c.781-.655 1.562-1.057 2.365-1.036 1.457.022 2.724 1.164 2.724 2.814v14.891a.212.212 0 01-.211.212h-2.28a.212.212 0 01-.212-.212V64.982c0-.19-.169-.254-.317-.127l-3.146 2.77v12.142zM43.502 64.75v15.018a.212.212 0 01-.21.212H41.01a.212.212 0 01-.212-.212V64.75H38.94a.212.212 0 01-.211-.212v-2.263c0-.127.105-.212.211-.212h6.356c.127 0 .212.106.212.212v2.263a.212.212 0 01-.212.212h-1.795zm37.653-11.53c0 .401-.169.528-.464.528h-.296v.698h.254c.358 0 .506.17.506.635v.38c0 .445-.148.55-.4.55-.254 0-.402-.126-.402-.486v-.465h-.74v.402c0 .782.402 1.248 1.162 1.248.76 0 1.162-.444 1.162-1.248v-.381c0-.508-.148-.867-.55-1.037.38-.148.55-.486.55-1.015v-.127c0-.782-.402-1.248-1.162-1.248-.76 0-1.161.444-1.161 1.248v.275h.739v-.296c0-.36.148-.486.401-.486s.401.127.401.57v.255zm-2.935-.275c0 1.438-1.542 1.67-1.542 3.13v.614h2.239v-.698h-1.478v-.106c0-.804 1.541-1.396 1.541-2.94 0-.783-.401-1.248-1.161-1.248s-1.162.444-1.162 1.248v.486h.74v-.55c0-.36.147-.486.4-.486.275 0 .423.105.423.55zm-4.583 2.559c0 .783.423 1.248 1.183 1.248s1.183-.444 1.183-1.248v-2.58c0-.783-.423-1.249-1.183-1.249s-1.183.445-1.183 1.248v2.581zm.782-2.623c0-.36.148-.486.401-.486s.401.127.401.486v2.665c0 .36-.148.487-.401.487s-.401-.127-.401-.487v-2.665zm-2.154.064c0 1.438-1.542 1.67-1.542 3.13v.614h2.239v-.698h-1.479v-.106c0-.804 1.542-1.396 1.542-2.94 0-.783-.401-1.248-1.162-1.248-.76 0-1.161.444-1.161 1.248v.486h.74v-.55c0-.36.147-.486.4-.486.275 0 .423.105.423.55zm-66.817-.508h.803v4.252h.781v-4.252h.803v-.698H5.448v.698zm-2.703.486c0 1.418 1.52 1.608 1.52 2.623 0 .36-.147.487-.4.487-.254 0-.402-.127-.402-.487v-.36h-.739v.297c0 .782.401 1.248 1.162 1.248.76 0 1.161-.444 1.161-1.248 0-1.417-1.52-1.608-1.52-2.623 0-.36.147-.487.38-.487.253 0 .38.127.38.487v.211h.739v-.148c0-.782-.38-1.248-1.14-1.248-.74 0-1.14.466-1.14 1.248zm-1.9-.486h1.33v-.698H.063v4.95h2.112v-.698H.845v-1.46H1.9v-.698H.845v-1.396zm79.677-12.29l-.993-.021v.17c0 .168 0 .295.021.401.022.106.064.19.127.254.063.063.169.106.338.106.148 0 .275-.022.359-.085a.402.402 0 00.148-.233 1.95 1.95 0 00.042-.402l-.042-.19zm-3.147-1.121l3.992.106-.043 1.586c0 .296-.063.55-.169.762-.105.211-.253.38-.443.486-.19.106-.444.17-.74.17-.232 0-.443-.043-.612-.106a1.221 1.221 0 01-.422-.275 1.12 1.12 0 01-.232-.444 2.61 2.61 0 01-.064-.614l.021-.592-1.33-.043.042-1.036zm2.386-6.219a1.231 1.231 0 00-.253-.529 1.06 1.06 0 00-.465-.338 1.129 1.129 0 00-.527-.064 1.18 1.18 0 00-.57.254.975.975 0 00-.338.487 1.12 1.12 0 00-.043.592c.043.212.127.38.254.529.126.148.295.254.485.338.19.064.402.085.634.043.169-.043.338-.106.486-.233.147-.127.253-.296.316-.487.043-.19.064-.402.022-.592zm.993-.17c.042.276.042.572 0 .847s-.148.55-.296.783a1.907 1.907 0 01-.57.592 1.69 1.69 0 01-.781.317 2.191 2.191 0 01-.908 0 2 2 0 01-.781-.338 1.979 1.979 0 01-.57-.614 2.704 2.704 0 01-.317-.846 2.154 2.154 0 01.338-1.671c.168-.233.358-.423.612-.571a2.69 2.69 0 01.845-.317c.295-.043.57-.043.844.042.275.063.507.19.74.36.21.169.4.38.548.634.148.233.254.487.296.783zm-4.371-8.206l.612 1.375 1.415-.635.422.952-3.653 1.65-.422-.952 1.499-.677-.612-1.375-1.5.677-.422-.952 3.653-1.65.423.952-1.415.634zm-1.267-5.225l-.908.084a1.04 1.04 0 00-.148-.719.732.732 0 00-.233-.211c-.105-.043-.19-.043-.274.02-.084.064-.127.128-.127.233 0 .106.021.212.064.36l.084.275c.085.317.106.592.063.825-.042.233-.19.444-.443.592-.401.254-.781.339-1.12.233-.38-.106-.675-.36-.928-.762a2.417 2.417 0 01-.38-1.438l.95-.085c-.064.424-.021.74.148.995a.58.58 0 00.274.232.33.33 0 00.338-.042c.106-.063.148-.17.148-.296-.021-.127-.042-.296-.106-.487a3.301 3.301 0 01-.148-.634.875.875 0 01.085-.466 1.15 1.15 0 01.422-.423 1.44 1.44 0 01.697-.232 1.02 1.02 0 01.655.169c.21.106.38.296.528.508.105.169.21.38.274.592.042.254.085.465.085.677zm-6.78-6.325l2.07-.233.887.931-2.47.17-.317 2.707-.93-.973.339-2.179-1.246 1.206-.718-.762 2.893-2.77.718.76-1.225 1.143zm-5.004-5.225l-.57.804.084.064a.775.775 0 00.317.169.475.475 0 00.57-.17.478.478 0 00.106-.317.656.656 0 00-.127-.275 1.001 1.001 0 00-.275-.232l-.105-.043zm-.063 1.862l.084 2.073-1.056-.762.085-1.819-.887 1.248-.845-.613 2.323-3.258 1.267.91c.211.148.38.338.507.529.127.19.169.401.169.613 0 .212-.106.444-.254.656a1.229 1.229 0 01-.38.36c-.148.084-.295.147-.464.147a.804.804 0 01-.55-.084zm-6.441-5.394a1.362 1.362 0 00-.57-.106 1.33 1.33 0 00-.55.19 1.076 1.076 0 00-.358.402 1.26 1.26 0 00-.106.614c.021.211.084.402.19.55a1.1 1.1 0 00.443.38c.19.085.38.106.57.085.19-.021.38-.106.55-.211.169-.127.295-.297.38-.487a.76.76 0 00.063-.529c-.021-.19-.105-.36-.211-.529-.063-.148-.211-.275-.401-.36zm.422-.91c.254.127.486.275.697.487a2.108 2.108 0 01.634 1.48c0 .275-.064.55-.17.825a2.304 2.304 0 01-.506.74c-.212.212-.444.36-.718.445a1.868 1.868 0 01-.824.127 2.595 2.595 0 01-.866-.212 2.3 2.3 0 01-.739-.507 2.008 2.008 0 01-.464-.72 1.877 1.877 0 01-.127-.824c.021-.297.084-.593.211-.868s.296-.486.507-.677a1.86 1.86 0 01.718-.402 2.77 2.77 0 01.823-.105c.296.02.57.084.824.211zM46.332.275l.233 2.665L47.852.55l.823.148.317 2.686L50.197.973l1.056.19-1.964 3.723-1.035-.19-.275-2.411h-.02l-1.183 2.157-1.035-.19-.465-4.146 1.056.169zM35.816 1.861l1.499-.19-.19-1.544L38.16 0l.507 3.977-1.035.127-.211-1.63-1.5.191.211 1.629-1.034.127L34.59.444l1.035-.127.19 1.544zm-5.766.572l.845 3.003-.992.275-.845-3.003-.824.232-.232-.846 2.619-.761.232.846-.803.254zm-5.955 4.082l-.95-.952.19 1.333.76-.38zm.613.571l-1.267.656.063.74-.992.508-.465-4.273 1.014-.529 3.167 2.877-.992.508-.528-.487zM16.282 9.54l.485.613.085-.063c.127-.106.232-.212.274-.317.043-.106.022-.212-.063-.339-.105-.127-.211-.17-.317-.148-.105.021-.253.106-.4.212l-.064.042zm2.428 2.179l-1.267.994-2.47-3.152 1.16-.91c.613-.486 1.141-.465 1.585.085.253.317.295.614.169.91.232-.148.464-.19.675-.127.212.063.402.19.592.423.232.296.295.613.19.93-.085.297-.317.593-.634.847zm-1.457-.952l.528.677.106-.085c.21-.17.338-.296.422-.444.084-.127.063-.275-.042-.402-.106-.148-.232-.19-.36-.17a1.504 1.504 0 00-.443.233l-.147.106-.064.085zm-4.857 7.255l-.507.064c-.02.57-.148 1.036-.401 1.396-.127.19-.296.338-.486.444a1.17 1.17 0 01-.591.148c-.211 0-.401-.085-.591-.212a1.07 1.07 0 01-.423-.57c-.063-.212-.042-.487.021-.783l.022-.106h-.402c-.063 0-.147-.021-.232-.042a.714.714 0 01-.253-.127c-.19-.127-.296-.296-.38-.487a1.12 1.12 0 01-.043-.592 1.4 1.4 0 01.254-.571 1.47 1.47 0 01.464-.423c.19-.106.38-.148.57-.148a.92.92 0 01.57.19.77.77 0 01.339.487c.042.19.042.423 0 .676l.718-.105c-.022-.318-.064-.55-.148-.762l.802-.148.148.72.021.063 1.288-.19-.76 1.078zm-2.703-.57a.889.889 0 00-.021-.34.421.421 0 00-.169-.253.32.32 0 00-.275-.064c-.105 0-.169.064-.232.148-.063.085-.084.17-.063.254.02.085.063.17.126.212a.442.442 0 00.233.084c.105-.02.232-.02.401-.042zm1.373.74l-.93.105c0 .127 0 .254.022.36.02.106.063.169.147.233a.34.34 0 00.19.063.407.407 0 00.212-.063c.063-.043.126-.085.169-.149.105-.169.169-.338.19-.55zM5.807 26.61l-1.33-.063 1.035.867.295-.804zm.845.043l-.528 1.332.55.508-.402 1.036-3.147-2.898.423-1.057 4.266.063-.423 1.016h-.739zm-4.54 7.36l.971.17.021-.17c.021-.169.043-.295.043-.401a.425.425 0 00-.085-.275c-.063-.085-.169-.127-.317-.148-.148-.021-.274-.021-.359.042a.336.336 0 00-.169.212c-.042.084-.063.232-.105.401v.17zM5.047 35.6l-3.928-.698.275-1.565a1.93 1.93 0 01.274-.74c.127-.19.296-.339.528-.424.211-.084.465-.105.76-.042.233.042.423.106.592.19.148.085.274.212.359.339.084.148.148.296.169.487.02.19.02.38-.021.613l-.106.592 1.31.233-.212 1.015zM.93 39.387l.824.401a1.093 1.093 0 00-.254.699c0 .105.043.211.106.296.063.084.148.148.253.127.106 0 .17-.043.233-.127.042-.085.105-.19.147-.339l.064-.275c.084-.317.211-.57.38-.74a.953.953 0 01.697-.275c.486-.021.845.106 1.077.38.253.297.401.678.401 1.122.021.507-.127.973-.422 1.417l-.845-.423c.275-.317.401-.635.401-.93a.714.714 0 00-.105-.36c-.064-.106-.17-.148-.296-.148-.127 0-.211.063-.275.169-.063.127-.105.275-.168.465-.064.254-.127.466-.212.614a.746.746 0 01-.316.36c-.148.084-.338.126-.57.147-.275 0-.507-.042-.719-.169-.21-.106-.359-.275-.485-.486-.127-.212-.17-.445-.19-.699 0-.211.02-.423.063-.655a2.1 2.1 0 01.211-.571zm56.384 2.75a8.414 8.414 0 00.021-1.925 6.315 6.315 0 00-.19-.952c-.19-.656-.464-1.164-.802-1.502-.127-.127-.253-.233-.359-.254-.57.36-1.33.254-1.753-.275a1.377 1.377 0 01-.232-.465c-.084-.36-.38-.635-.802-.847-.676-.317-1.605-.444-2.62-.401-.316.02-.654.042-.992.105.254.55.17 1.1.106 1.671-.042.36-.084.72.084.868.127.106.444.02.803-.064.908-.211 1.88-.444 2.999.487 1.245 1.057.971 2.03.718 2.919-.085.254-.148.508-.085.55.106.084.401 0 .718-.064.782-.19 1.563-.38 2.386.148zm-2.28 4.632c.76-.825 1.309-1.671 1.69-2.538a.657.657 0 00-.19-.466c-.297-.317-.74-.211-1.141-.106-.803.19-1.563.381-2.387-.338-.844-.761-.654-1.48-.422-2.263.106-.402.232-.825-.169-1.185-.401-.338-.908-.211-1.373-.106-.844.212-1.604.381-2.45-.338-.844-.74-.76-1.523-.654-2.327.042-.38.085-.783-.169-.994-.105.042-.19.085-.295.106-1.014.423-1.816 1.036-2.091 1.734 1.098.804.992 1.692.887 2.58-.042.36-.085.72.084.868.127.106.465.042.803-.042.908-.212 1.88-.444 2.998.507 1.246 1.058.972 2.031.74 2.92-.064.253-.148.507-.085.55.106.084.422.02.74-.064.928-.233 1.921-.465 2.935.656.274.254.443.55.549.846zm-12.227-.275a14.28 14.28 0 01-.275.888c-.106.381-.232.74-.338 1.121a8.213 8.213 0 00-.253 1.29c.105 1.058.02 2.116-.085 3.005 1.479-.699 3.57-1.566 5.554-2.01.465-.106.95-.19 1.415-.296l.634-.127c-.233-.042-.507 0-.782.042-.844.127-1.668.233-2.492-.486-.865-.762-.697-1.502-.485-2.306.105-.402.21-.846-.17-1.184-.4-.339-.907-.233-1.372-.106-.464.105-.908.211-1.351.169zm.316-7.277c-.4.212-.781.593-1.119 1.1 1.31 1.439 1.5 2.898 1.225 4.442.148-.02.296-.063.465-.105.908-.212 1.9-.466 3.02.507 1.14.995.907 1.946.696 2.814-.063.296-.148.592-.042.676.19.17.612.127 1.035.064.929-.127 1.88-.254 2.787.72a.816.816 0 01.233.465c.865-.276 1.626-.635 2.154-1.185-.233-.212-.36-.529-.275-.846.042-.17.063-.317.042-.465-.02-.127-.084-.233-.19-.36-.295-.339-.739-.212-1.161-.127-.803.19-1.563.38-2.386-.339-.845-.761-.655-1.48-.444-2.263.106-.402.232-.846-.19-1.184-.422-.339-.93-.233-1.394-.127-.845.19-1.626.38-2.45-.36-.844-.74-.76-1.523-.654-2.327.042-.402.106-.803-.211-1.036a.938.938 0 00-.486-.19c-.169-.022-.38.02-.57.084a.16.16 0 01-.085.042zm-11.931-3.976c-.591-.064-1.098-.064-1.478.02l-.275.064c0 .55-.38 1.058-.971 1.206a1.597 1.597 0 01-.634 0c-.697-.17-1.351.042-1.922.465-.527.402-.971 1.016-1.309 1.692-.338.699-.528 1.481-.528 2.2 0 .656.127 1.27.444 1.756.506-.148 1.034-.084 1.562-.042.38.042.74.084.908-.085.106-.127.021-.423-.063-.761-.232-.868-.465-1.798.507-2.877 1.098-1.185 2.112-.93 3.04-.698.275.063.529.127.571.085.085-.085.021-.381-.063-.699-.212-.719-.423-1.501.21-2.326zm-3.168 13.453c.697.465 1.478.888 2.323 1.227.803-.889 1.69-.804 2.555-.698.38.042.76.084.908-.085.106-.127.043-.444-.063-.783-.232-.888-.486-1.819.55-2.898 1.034-1.078 2.026-.867 2.934-.676.317.063.613.127.697.042.19-.19.127-.592.064-.973-.127-.889-.275-1.798.739-2.665a.907.907 0 01.486-.212 8.593 8.593 0 00-1.289-2.01.98.98 0 01-.844.212 1.312 1.312 0 00-.486-.042.808.808 0 00-.38.19c-.338.296-.233.72-.127 1.121.211.762.401 1.502-.359 2.285-.781.825-1.541.634-2.365.423-.422-.106-.866-.233-1.246.169-.359.402-.232.888-.127 1.333.212.803.402 1.544-.38 2.348-.781.803-1.605.719-2.428.634-.423-.042-.845-.084-1.077.19a.919.919 0 00-.212.466c.064.106.085.254.127.402zm12.417-6.135l-.063-.126.063.127zm.043.127l-.064-.127.064.127zm-.613 4.654v-.063l.021-.085.021-.085.022-.084.02-.085.022-.085.02-.084.022-.085.021-.084.021-.085.021-.084.021-.085.022-.085.02-.084.022-.085.021-.085.021-.084.021-.085.021-.084.021-.085.022-.085.02-.084.022-.085.02-.084.022-.064.021-.063.021-.064.021-.063.022-.064v-.781c-.022-.339-.064-.677-.19-.995l-.064-.127-.063-.127c-.064-.105-.106-.211-.19-.296v.022l-.021.02v.022c-.296.254-.233.698-.17 1.142v1.691l-.02.021-.022.043-.02.021-.022.021-.021.021v.021l-.021.043v.02l-.021.022-.021.021-.021.042c-.085.106-.17.233-.275.339-.802.825-1.584.656-2.407.465-.423-.084-.887-.19-1.225.17-.36.38-.233.867-.127 1.311.211.804.401 1.544-.359 2.348a2.342 2.342 0 01-.824.55c1.838.317 3.59 1.248 4.9 1.988-.042-1.438.02-3.342.485-4.97.022-.381.064-.572.127-.741zM25.3 45.013a.44.44 0 00-.106.254c-.042.317.127.74.444 1.206.19.296.443.592.739.888.084-.211.211-.402.359-.592.845-1.079 1.774-.973 2.703-.867.38.042.76.084.908-.085.127-.127.042-.444-.042-.783-.232-.867-.465-1.798.528-2.876 1.098-1.206 2.133-.931 3.04-.699.275.064.529.127.571.085.084-.106.021-.402-.063-.698-.233-.888-.486-1.84.675-2.813a2.673 2.673 0 011.267-.593h.022a9.032 9.032 0 00-.93-.634c-.105-.021-.19-.063-.295-.106-.444-.275-.972-.592-1.436-.719-.317-.085-.634-.085-.887.127-.338.275-.211.698-.106 1.1.211.761.401 1.502-.359 2.284-.781.825-1.541.614-2.365.402-.422-.105-.866-.232-1.225.17-.359.38-.232.867-.105 1.31.21.805.4 1.545-.36 2.349-.78.804-1.604.72-2.428.635-.084 0-.19-.022-.274-.022-.022.233-.085.487-.254.677H25.3zm12.987-17.599c.17-.296.93-.508 1.352-.592.528-.106 1.077-.17 1.373-.466.295.318.844.36 1.372.466.423.084 1.183.317 1.352.592-.127.275-.718.677-1.246.592-.528-.105-.803-.38-1.457-.38-.655 0-.93.296-1.457.38-.57.106-1.162-.317-1.289-.592zm6.864-.656c.464-2.538.823-2.453.887-3.32.105-1.164-.19-1.566-.402-2.031-.084.02-1.119-.17-1.119.253-.021.53-.655.508-1.182.508-.592 0-1.078-.275-1.711-.338.021-.339.127-1.27.486-1.248 1.013.063 1.88-.36 3.02-.339.105 0 .21.127.295.275 0-.19.021-.402.063-.655a9.003 9.003 0 00-4.498-1.27c-1.52 0-3.062.423-4.498 1.27.043.253.064.465.064.655.084-.148.19-.254.295-.275 1.14-.02 2.028.402 3.02.339.36-.021.465.91.486 1.248-.634.063-1.12.338-1.71.338-.529 0-1.162.021-1.183-.508-.021-.401-1.035-.211-1.12-.253-.21.465-.506.867-.4 2.03.084.868.422.804.886 3.321a.483.483 0 00.338.148c.296 0-.021-.338.401-1.057.655-.339 1.795-1.27 2.408-.867.654.422 1.33.444 1.985 0 .612-.402 1.774.55 2.407.867.423.719.106 1.057.401 1.057a.607.607 0 00.38-.148zm2.893-9.434c-2.534-2.03-3.38-7.001-7.032-6.938-3.76 0-4.52 4.929-7.054 6.938 4.752-2.94 8.574-3.046 14.086 0zm-12.84 7.996c-.232 3.194-.105 4.78 2.133 8.313 1.732.72 2.957 1.354 3.653 1.354.697 0 1.901-.593 3.612-1.29 2.301-3.575 2.428-5.12 2.217-8.377l.063-.38a2.41 2.41 0 00.401-.212c.95-.53 1.901-1.481 2.239-2.539a2.67 2.67 0 00.127-1.269c0-.042.02-.063 0-.106 0-.127-.021-.275-.064-.401-.359-.762-1.33-1.566-2.703-2.222-1.943-1.163-4.582-1.861-5.87-1.861-1.33 0-4.034.72-5.998 1.925a10.87 10.87 0 00-2.386 1.861 2.74 2.74 0 00-.127 2.052c.36 1.058 1.288 1.989 2.239 2.538.126.085.253.17.4.233l.064.38zm3.252 31.073c.317.318.423.72.465 1.185H43.1c.042-.465.148-.867.465-1.185 1.077-.592.063-1.12 1.5-1.501.78-.212 2.639-.212 3.8-.424a44.31 44.31 0 001.69-.317c3.864-.782 9.08-4.188 11.614-7.128.634-.74 1.014-1.164.76-2.306.022-.952-1.013-5.203-2.491-6.536-.697-2.348-2.365-6.304-6.652-6.24-1.415.02-2.534-1.227-4.498-1.312-1.225-.084-1.542-1.142-1.563-2.157 3.358-1.418 5.997-8.63 4.392-9.18-.718-.255-2.534-1.545-3.04-2.899-1.88-4.082-3.633-7.488-8.046-7.467-4.456-.042-6.188 3.364-8.088 7.446-.507 1.333-2.323 2.644-3.041 2.898-1.605.55 1.056 7.827 4.434 9.202-.02 1.015-.316 2.051-1.605 2.157-1.942.064-3.083 1.333-4.498 1.312-4.287-.064-5.955 3.892-6.652 6.24-1.478 1.333-2.513 5.584-2.492 6.536-.253 1.142.106 1.565.76 2.306 2.535 2.94 7.75 6.346 11.615 7.128.634.127 1.204.233 1.69.317 1.161.212 3.02.212 3.801.424 1.436.38.422.91 1.5 1.501z" fill="#D8DADB"/></g><defs><clipPath id="clip0_98_664"><path fill="#fff" d="M0 0h82v80H0z"/></clipPath></defs></svg>