<svg width="6" height="13" viewBox="0 0 6 13" fill="none" xmlns="http://www.w3.org/2000/svg"><path d="M5.82 11.597l-.19.743c-.569.215-1.023.378-1.362.49-.339.114-.733.17-1.181.17-.69 0-1.226-.162-1.608-.483a1.534 1.534 0 01-.573-1.226c0-.191.014-.389.042-.59.03-.2.076-.428.14-.68l.71-2.411a9.83 9.83 0 00.16-.656c.044-.206.065-.395.065-.565 0-.308-.066-.523-.199-.645-.132-.12-.385-.182-.76-.182a2.09 2.09 0 00-.566.083A8.14 8.14 0 000 5.802l.19-.743c.466-.182.912-.337 1.338-.466.426-.13.828-.195 1.21-.195.684 0 1.212.159 1.583.475.37.317.556.728.556 1.234 0 .105-.012.29-.039.553a3.559 3.559 0 01-.142.727l-.708 2.401c-.058.193-.11.413-.156.661-.047.247-.07.435-.07.561 0 .32.075.537.224.653.15.115.408.173.775.173.172 0 .368-.03.586-.087.217-.057.375-.108.473-.152zM6 1.518c0 .418-.165.776-.496 1.07a1.73 1.73 0 01-1.193.442 1.75 1.75 0 01-1.199-.443c-.333-.293-.5-.65-.5-1.069 0-.417.167-.775.5-1.073A1.74 1.74 0 014.312 0c.464 0 .862.149 1.192.445.332.298.496.656.496 1.073z" fill="#fff"/></svg>