<svg width="70" height="68" viewBox="0 0 70 68" fill="none" xmlns="http://www.w3.org/2000/svg"><g clip-path="url(#clip0_98_62)"><path fill-rule="evenodd" clip-rule="evenodd" d="M5.264 57.158v-1.906c0-.108-.036-.198-.162-.198H2.47c-.126 0-.163.09-.163.198v2.122c0 .072.019.072.055.126 1.46 1.258 3.064 2.517 4.488 3.812.487.431.721 1.06.721 1.708v2.48c0 1.331-1.171 2.5-2.47 2.5H2.47A2.482 2.482 0 010 65.537v-2.338c0-.107.09-.18.18-.18h1.947c.108 0 .18.09.18.18v2.284c0 .108.037.198.163.198h2.632c.126 0 .162-.09.162-.198V63.02c0-.072-.018-.072-.054-.126-1.46-1.24-3.1-2.517-4.489-3.812A2.348 2.348 0 010 57.374v-2.14c0-1.33 1.19-2.499 2.47-2.499h2.632a2.47 2.47 0 012.47 2.463v1.942a.18.18 0 01-.18.18H5.443c-.09.018-.18-.072-.18-.162zm3.912 10.626c0 .108.072.198.18.198h1.947a.18.18 0 00.18-.18v-4.747c0-.09.018-.125.054-.143l4.49-3.812c.486-.414.72-1.06.72-1.708v-2.14c0-1.33-1.19-2.499-2.47-2.499h-2.631a2.47 2.47 0 00-2.47 2.463v12.568zm2.307-12.532c0-.108.036-.198.163-.198h2.632c.126 0 .162.09.162.198v2.122c0 .072-.018.072-.054.126l-2.903 2.427v-4.675zm9.176-.018c0-.162-.054-.198-.198-.198h-2.632a.18.18 0 01-.18-.18v-1.923c0-.108.09-.18.18-.18h2.632c1.262 0 2.506 1.223 2.506 2.481V65.52a2.47 2.47 0 01-2.47 2.463h-2.65c-1.28 0-2.47-1.15-2.47-2.5v-2.139c0-.647.217-1.294.721-1.708l4.507-3.812c.036-.018.054-.09.054-.144v-2.445zm-.018 10.267c0 .108-.036.198-.162.198h-2.632c-.126 0-.162-.09-.162-.198v-2.122c0-.072.018-.072.054-.126l2.92-2.409-.018 4.657zm9.807-5.502l1.208 1.384c.415.486.757 1.115.757 1.744v4.675a.18.18 0 01-.18.18h-1.947a.18.18 0 01-.18-.18V63.2c0-.107-.037-.161-.073-.197l-1.334-1.51-1.676 1.42c-.036.018-.054.054-.054.144v4.746a.18.18 0 01-.18.18h-1.947c-.108 0-.18-.09-.18-.198V55.216a2.47 2.47 0 012.47-2.463h2.613c1.28 0 2.47 1.15 2.47 2.5v2.139c0 .647-.217 1.294-.721 1.708l-1.046.899zm-3.497-4.747c0-.108.036-.198.162-.198h2.632c.126 0 .162.09.162.198v2.122c0 .072-.018.072-.054.126l-2.902 2.427v-4.675zm15.431 12.55a.18.18 0 01-.18.18h-1.947a.18.18 0 01-.18-.18v-14.87a.18.18 0 01.18-.179h1.947c.108 0 .18.09.18.18v14.87zm6.959-10.644v-1.906c0-.108-.036-.198-.163-.198h-2.631c-.127 0-.163.09-.163.198v2.122c0 .072.018.072.054.126 1.46 1.258 3.065 2.517 4.49 3.812.486.431.72 1.06.72 1.708v2.48c0 1.331-1.172 2.5-2.47 2.5h-2.631a2.47 2.47 0 01-2.47-2.463v-2.338c0-.107.09-.18.18-.18h1.947c.108 0 .18.09.18.18v2.284c0 .108.036.198.163.198h2.632c.126 0 .162-.09.162-.198V63.02c0-.072-.018-.072-.054-.126-1.46-1.24-3.101-2.517-4.49-3.812a2.348 2.348 0 01-.72-1.708v-2.14c0-1.33 1.19-2.499 2.47-2.499h2.632a2.47 2.47 0 012.47 2.463v1.942a.18.18 0 01-.181.18H49.52c-.09.018-.18-.072-.18-.162zm6.165 0v-1.906c0-.108.036-.198.162-.198h2.596c.162 0 .198.036.198.198v2.445c0 .054-.018.126-.054.144l-4.506 3.812c-.487.414-.721 1.06-.721 1.708v2.14c0 1.348 1.19 2.499 2.47 2.499h2.631a2.47 2.47 0 002.47-2.463V55.252c0-1.258-1.244-2.481-2.506-2.481H55.65c-1.352 0-2.47 1.097-2.47 2.445v1.942c0 .108.09.18.18.18h1.948c.126 0 .198-.09.198-.18zm2.956 8.343c0 .108-.036.198-.162.198h-2.632c-.126 0-.162-.09-.162-.198v-2.122c0-.072.018-.072.054-.126l2.92-2.409-.017 4.657zm6.274 2.301a.18.18 0 01-.18.18h-1.947a.18.18 0 01-.18-.18v-14.87a.18.18 0 01.18-.179h1.947c.108 0 .18.09.18.18v1.474l.92-.773c.666-.557 1.333-.899 2.018-.881A2.344 2.344 0 0170 55.144v12.658a.18.18 0 01-.18.18h-1.947a.18.18 0 01-.18-.18V55.234c0-.162-.145-.215-.27-.108l-2.687 2.356v10.32zm-27.6-12.766v12.766a.18.18 0 01-.18.18h-1.947a.18.18 0 01-.18-.18V55.036h-1.587a.18.18 0 01-.18-.18v-1.923c0-.108.09-.18.18-.18h5.427c.108 0 .18.09.18.18v1.924a.18.18 0 01-.18.18h-1.533zm32.143-9.799c0 .342-.144.45-.397.45h-.252v.593h.216c.307 0 .433.144.433.54v.323c0 .378-.126.468-.343.468-.216 0-.342-.108-.342-.414v-.395h-.631v.341c0 .666.342 1.061.991 1.061.65 0 .992-.377.992-1.06v-.324c0-.432-.126-.737-.469-.881.325-.126.469-.414.469-.863v-.108c0-.666-.343-1.061-.992-1.061s-.991.378-.991 1.06v.235h.63v-.252c0-.306.127-.414.343-.414.217 0 .343.108.343.486v.215zm-2.506-.233c0 1.222-1.316 1.42-1.316 2.66v.522h1.911v-.593h-1.262v-.09c0-.683 1.316-1.187 1.316-2.5 0-.665-.342-1.06-.991-1.06-.65 0-.992.378-.992 1.06v.414h.631v-.467c0-.306.126-.414.343-.414.234 0 .36.09.36.468zm-3.912 2.175c0 .665.36 1.061 1.01 1.061.649 0 1.01-.378 1.01-1.06v-2.194c0-.665-.361-1.061-1.01-1.061-.65 0-1.01.378-1.01 1.06v2.194zm.667-2.23c0-.305.126-.413.343-.413.216 0 .342.108.342.414v2.265c0 .306-.126.414-.342.414-.217 0-.343-.108-.343-.414V44.95zm-1.839.055c0 1.222-1.316 1.42-1.316 2.66v.522h1.911v-.593h-1.262v-.09c0-.683 1.316-1.187 1.316-2.5 0-.665-.342-1.06-.991-1.06-.65 0-.992.378-.992 1.06v.414h.631v-.467c0-.306.127-.414.343-.414.234 0 .36.09.36.468zm-57.038-.432h.685v3.614h.667v-3.614h.685v-.593H4.651v.593zm-2.307.414c0 1.204 1.298 1.366 1.298 2.23 0 .305-.127.413-.343.413-.216 0-.343-.108-.343-.414v-.305h-.63v.251c0 .666.342 1.061.991 1.061s.992-.378.992-1.06c0-1.205-1.298-1.367-1.298-2.23 0-.306.126-.414.324-.414.216 0 .325.108.325.414v.18h.63v-.126c0-.665-.324-1.061-.973-1.061-.63 0-.973.396-.973 1.06zM.72 44.572h1.136v-.593H.054v4.207h1.803v-.593H.72v-1.24h.901v-.594h-.9v-1.187zm68.017-10.446l-.847-.018v.144c0 .144 0 .251.018.341a.41.41 0 00.108.216c.054.054.144.09.288.09.127 0 .235-.018.307-.072a.342.342 0 00.126-.198c.018-.09.036-.197.036-.341l-.036-.162zm-2.686-.953l3.407.09-.036 1.348c0 .252-.054.468-.144.648a.94.94 0 01-.379.413c-.162.09-.378.144-.63.144-.199 0-.38-.036-.523-.09a1.044 1.044 0 01-.361-.234.95.95 0 01-.198-.377 2.206 2.206 0 01-.054-.522l.018-.503-1.136-.036.036-.881zm2.037-5.286a1.045 1.045 0 00-.216-.45.907.907 0 00-.397-.287c-.144-.054-.306-.072-.45-.054a1.01 1.01 0 00-.487.215.828.828 0 00-.289.414.947.947 0 00-.036.503c.036.18.108.324.217.45.108.126.252.216.414.288a.981.981 0 00.956-.162.922.922 0 00.27-.414c.036-.162.054-.341.018-.503zm.847-.144c.036.234.036.485 0 .72a1.757 1.757 0 01-.252.664 1.625 1.625 0 01-.487.504 1.458 1.458 0 01-.667.27c-.27.053-.523.053-.775 0a1.712 1.712 0 01-.667-.288 1.686 1.686 0 01-.487-.521 2.293 2.293 0 01-.27-.72 1.826 1.826 0 01.288-1.42 1.7 1.7 0 01.523-.486c.217-.125.45-.215.721-.27a1.62 1.62 0 01.721.037c.235.054.433.162.631.305.18.144.343.324.469.54.126.198.216.413.252.665zm-3.731-6.976l.523 1.169 1.207-.54.36.81-3.118 1.402-.36-.81 1.28-.575-.523-1.168-1.28.575-.36-.81 3.118-1.402.36.81-1.207.539zm-1.082-4.441l-.775.072a.881.881 0 00-.126-.612.62.62 0 00-.199-.18c-.09-.035-.162-.035-.234.018-.072.054-.108.108-.108.198 0 .09.018.18.054.306l.072.234c.072.27.09.503.054.7a.74.74 0 01-.378.504c-.343.216-.667.288-.956.198-.324-.09-.577-.305-.793-.647a2.047 2.047 0 01-.325-1.223l.812-.072c-.054.36-.018.63.126.845.054.09.144.162.234.198.09.036.199.036.289-.036.09-.054.126-.144.126-.252-.018-.107-.036-.251-.09-.413a2.787 2.787 0 01-.126-.54.74.74 0 01.072-.395.978.978 0 01.36-.36 1.22 1.22 0 01.595-.197.873.873 0 01.559.143c.18.09.324.252.45.432.09.144.18.324.235.503.036.216.072.396.072.576zm-5.787-5.376l1.767-.198.757.791-2.109.144-.27 2.301-.794-.827.289-1.852-1.064 1.025-.613-.647 2.47-2.355.613.647-1.046.97zm-4.272-4.441l-.487.683.072.054c.09.072.18.126.27.144a.406.406 0 00.487-.144c.072-.09.09-.18.09-.27a.557.557 0 00-.108-.234.854.854 0 00-.234-.197l-.09-.036zM54.01 8.09l.072 1.762-.901-.647.072-1.547-.758 1.061-.72-.521 1.982-2.77 1.082.774a1.7 1.7 0 01.433.45.915.915 0 01.144.521c0 .18-.09.378-.216.557a1.05 1.05 0 01-.325.306.794.794 0 01-.397.126.689.689 0 01-.468-.072zm-5.498-4.585a1.168 1.168 0 00-.487-.09 1.123 1.123 0 00-.469.162.917.917 0 00-.306.342c-.073.18-.109.341-.09.521a.942.942 0 00.54.791c.162.072.325.09.487.072.162-.018.325-.09.469-.18a1.04 1.04 0 00.324-.413.645.645 0 00.054-.45 1.077 1.077 0 00-.18-.45c-.054-.125-.18-.233-.343-.305zm.36-.773c.216.108.415.234.595.413a1.786 1.786 0 01.54 1.259c0 .234-.053.468-.143.701a1.96 1.96 0 01-.433.63 1.46 1.46 0 01-.613.377 1.6 1.6 0 01-.703.108 2.224 2.224 0 01-.74-.18 1.965 1.965 0 01-.63-.431 1.705 1.705 0 01-.397-.612 1.59 1.59 0 01-.108-.7 2.11 2.11 0 01.18-.738c.108-.234.253-.414.433-.575.18-.162.378-.27.613-.342a2.36 2.36 0 01.703-.09c.252.018.487.072.703.18zm-9.32-2.5L39.75 2.5l1.1-2.032.703.126.27 2.284 1.028-2.05.901.162-1.676 3.164-.884-.161-.234-2.05h-.018l-1.01 1.834-.883-.162L38.651.09l.9.144zm-8.978 1.35l1.28-.163-.162-1.312.883-.108.433 3.38-.883.108-.18-1.384-1.28.161.18 1.385-.884.108-.432-3.38.883-.108.162 1.312zm-4.921.485l.72 2.553-.846.234-.721-2.554-.704.198-.198-.719 2.236-.647.198.719-.685.216zm-5.084 3.47l-.811-.81.162 1.133.65-.323zm.523.485l-1.082.558.054.629-.847.431-.396-3.631.865-.45 2.704 2.445-.847.432-.451-.414zM13.899 8.11l.415.521.072-.054c.108-.09.198-.18.234-.27.036-.09.018-.18-.054-.287-.09-.108-.18-.144-.27-.126-.09.018-.217.09-.343.18l-.054.036zm2.073 1.852l-1.082.845-2.109-2.68.992-.772c.523-.414.973-.396 1.352.072.216.27.252.521.144.773.198-.126.397-.162.577-.108.18.054.343.162.505.36.198.251.252.521.162.79-.072.252-.27.504-.54.72zm-1.244-.81l.451.576.09-.072c.18-.144.289-.252.36-.377.073-.108.055-.234-.035-.342-.09-.126-.199-.162-.307-.144-.108.036-.234.09-.378.198l-.127.09-.054.072zm-4.146 6.168l-.433.054c-.018.485-.126.88-.342 1.187a1.187 1.187 0 01-.415.377 1 1 0 01-.505.126c-.18 0-.342-.072-.504-.18a.91.91 0 01-.36-.485c-.055-.18-.037-.414.017-.666l.018-.09h-.342c-.054 0-.127-.018-.199-.035a.61.61 0 01-.216-.108.903.903 0 01-.324-.414.948.948 0 01-.036-.503c.036-.18.108-.342.216-.486.108-.144.234-.27.396-.36a.983.983 0 01.487-.125c.18 0 .343.054.487.162a.655.655 0 01.288.413c.036.162.036.36 0 .575l.613-.09a2.06 2.06 0 00-.126-.647l.685-.125.126.61.018.055 1.1-.162-.649.917zm-2.307-.486c.018-.107 0-.197-.018-.287a.358.358 0 00-.145-.216c-.072-.054-.144-.072-.234-.054-.09 0-.144.054-.198.126-.054.072-.072.144-.054.216a.31.31 0 00.108.18.38.38 0 00.198.071c.09-.018.198-.018.343-.036zm1.171.63l-.793.09c0 .107 0 .215.018.305s.054.144.126.198a.292.292 0 00.163.054.349.349 0 00.18-.054.485.485 0 00.144-.126c.09-.144.144-.287.162-.467zM4.958 22.62l-1.136-.054.883.737.253-.683zm.72.036l-.45 1.132.469.432-.343.88-2.686-2.462.36-.9 3.642.055-.36.863h-.631zm-3.875 6.257l.829.143.018-.143c.018-.144.036-.252.036-.342a.36.36 0 00-.072-.234c-.054-.072-.144-.108-.27-.125-.127-.018-.235-.018-.307.035a.286.286 0 00-.144.18c-.036.072-.054.198-.09.342v.144zm2.506 1.348l-3.354-.593.235-1.33a1.64 1.64 0 01.234-.63.9.9 0 01.45-.36c.181-.072.397-.09.65-.036.198.036.36.09.505.162.126.072.234.18.306.288.072.126.126.252.144.413a1.73 1.73 0 01-.018.522l-.09.503 1.118.198-.18.863zM.793 33.48l.703.341a.927.927 0 00-.216.593c0 .09.036.18.09.252.054.072.126.126.216.108.09 0 .145-.036.199-.108.036-.072.09-.162.126-.287l.054-.234c.072-.27.18-.486.324-.63a.816.816 0 01.595-.233c.415-.018.721.09.92.323.216.252.342.576.342.953.018.432-.108.827-.36 1.205l-.721-.36c.234-.27.342-.539.342-.79a.605.605 0 00-.09-.306c-.054-.09-.144-.126-.252-.126-.109 0-.18.054-.235.144-.054.108-.09.233-.144.395-.054.216-.108.396-.18.522a.636.636 0 01-.27.305c-.127.072-.29.108-.487.126-.235 0-.433-.036-.613-.144a1.018 1.018 0 01-.415-.413c-.108-.18-.144-.378-.162-.594 0-.18.018-.36.054-.557.036-.162.09-.324.18-.485zm48.133 2.337a7.125 7.125 0 00.018-1.636 5.349 5.349 0 00-.162-.81c-.162-.557-.397-.988-.685-1.276-.108-.108-.217-.198-.307-.216-.486.306-1.135.216-1.496-.233a1.168 1.168 0 01-.198-.396c-.072-.306-.325-.54-.685-.72-.577-.269-1.37-.377-2.236-.34-.27.017-.558.035-.847.09.216.467.144.934.09 1.42-.036.305-.072.61.072.737.108.09.379.018.685-.054.776-.18 1.605-.378 2.56.413 1.064.9.83 1.726.613 2.482-.072.215-.126.431-.072.467.09.072.343 0 .613-.054.667-.162 1.334-.323 2.037.126zm-1.947 3.938a7.787 7.787 0 001.442-2.158.557.557 0 00-.162-.396c-.252-.27-.63-.18-.973-.09-.685.162-1.334.324-2.038-.287-.72-.647-.558-1.259-.36-1.924.09-.342.198-.701-.144-1.007-.343-.288-.775-.18-1.172-.09-.721.18-1.37.324-2.091-.288-.721-.629-.65-1.294-.559-1.977.036-.324.072-.665-.144-.845-.09.036-.163.072-.253.09-.865.36-1.55.88-1.784 1.474.937.683.847 1.438.757 2.194-.036.305-.072.61.072.737.108.09.397.036.685-.036.775-.18 1.604-.378 2.56.431 1.063.9.83 1.726.63 2.481-.053.216-.125.432-.071.468.09.072.36.018.63-.054.794-.198 1.641-.396 2.506.557.235.216.379.468.47.72zm-10.438-.234c-.072.252-.144.503-.234.755-.09.324-.198.63-.288.953-.09.341-.18.72-.217 1.097.09.899.018 1.798-.072 2.553 1.262-.593 3.047-1.33 4.741-1.708.397-.09.812-.162 1.208-.252l.54-.108c-.197-.036-.432 0-.666.036-.721.108-1.424.198-2.127-.413-.74-.648-.595-1.277-.415-1.96.09-.342.18-.72-.144-1.007-.343-.288-.775-.198-1.172-.09-.397.09-.775.18-1.154.144zm.27-6.185c-.342.18-.666.503-.955.935 1.118 1.222 1.28 2.463 1.046 3.775.126-.017.252-.053.396-.09.776-.18 1.623-.395 2.578.432.974.845.776 1.654.595 2.391-.054.252-.126.504-.036.576.162.144.523.108.884.054.793-.108 1.604-.216 2.38.611a.7.7 0 01.198.396c.739-.234 1.388-.54 1.838-1.007-.198-.18-.306-.45-.234-.72.036-.143.054-.27.036-.395a.637.637 0 00-.162-.306c-.253-.287-.631-.18-.992-.108-.685.162-1.334.324-2.037-.287-.721-.648-.559-1.259-.378-1.924.09-.342.198-.72-.163-1.007-.36-.288-.793-.198-1.19-.108-.72.162-1.388.324-2.09-.305-.722-.63-.65-1.295-.56-1.978.036-.342.09-.684-.18-.881a.8.8 0 00-.414-.162 1.187 1.187 0 00-.487.072.137.137 0 01-.072.036zm-10.185-3.38c-.504-.054-.937-.054-1.262.018l-.234.053c0 .468-.324.9-.83 1.025-.18.036-.378.036-.54 0-.595-.143-1.154.036-1.64.396-.451.341-.83.863-1.118 1.438a4.386 4.386 0 00-.45 1.87c0 .557.107 1.079.378 1.492.432-.125.883-.071 1.334-.035.324.035.63.071.775-.072.09-.108.018-.36-.054-.648-.198-.737-.397-1.528.433-2.445.937-1.007 1.802-.791 2.595-.593.235.054.451.108.487.072.072-.072.018-.324-.054-.594-.18-.611-.36-1.276.18-1.977zM23.922 41.39c.595.395 1.262.755 1.983 1.043.685-.756 1.442-.684 2.181-.594.325.036.65.072.776-.072.09-.108.036-.377-.054-.665-.199-.755-.415-1.546.468-2.463.884-.917 1.731-.737 2.506-.576.27.054.523.108.595.036.162-.161.108-.503.054-.827-.108-.755-.234-1.528.631-2.265a.775.775 0 01.415-.18 7.295 7.295 0 00-1.1-1.708.839.839 0 01-.721.18 1.113 1.113 0 00-.415-.036.69.69 0 00-.324.162c-.289.251-.199.611-.108.953.18.647.342 1.276-.307 1.941-.667.702-1.316.54-2.019.36-.36-.09-.739-.198-1.064.144-.306.341-.198.755-.108 1.133.18.683.343 1.312-.324 1.995-.667.684-1.37.612-2.073.54-.36-.036-.721-.072-.92.162a.78.78 0 00-.18.395c.054.09.072.216.108.342zm10.6-5.214l-.054-.108.054.108zm.036.107l-.054-.107.054.107zm-.523 3.956v-.054l.019-.072.018-.072.018-.072.018-.072.018-.072.018-.071.018-.072.018-.072.018-.072.018-.072.018-.072.018-.072.018-.072.018-.072.018-.072.018-.072.018-.072.018-.072.018-.071.018-.072.018-.072.018-.072.018-.072.018-.054.018-.054.018-.054.018-.054.018-.054v-.665c-.018-.288-.054-.575-.162-.845l-.054-.108-.054-.108c-.054-.09-.09-.18-.162-.252v.018l-.018.018v.018c-.253.216-.199.594-.145.971v1.439l-.018.018-.018.036-.018.018-.018.018-.018.018v.018l-.018.035v.018l-.018.018-.018.018-.018.036c-.072.09-.144.198-.234.288-.685.701-1.352.557-2.055.396-.36-.072-.758-.162-1.046.143-.306.324-.198.738-.108 1.115.18.684.343 1.313-.306 1.996a1.996 1.996 0 01-.704.468c1.569.27 3.065 1.06 4.183 1.69-.036-1.223.018-2.841.414-4.226.018-.323.054-.485.108-.629zm-12.438-1.978a.373.373 0 00-.09.216c-.037.27.108.63.378 1.025.162.252.379.503.631.755.072-.18.18-.342.307-.503.72-.917 1.514-.828 2.307-.738.325.036.649.072.775-.072.108-.107.036-.377-.036-.665-.198-.737-.396-1.528.45-2.445.938-1.025 1.822-.791 2.597-.593.234.054.45.108.486.072.073-.09.019-.342-.054-.594-.198-.755-.414-1.564.577-2.391a2.287 2.287 0 011.082-.504h.018a7.712 7.712 0 00-.793-.539c-.09-.018-.162-.054-.253-.09-.378-.234-.829-.503-1.226-.611-.27-.072-.54-.072-.757.108-.288.233-.18.593-.09.935.18.647.343 1.276-.306 1.942-.667.7-1.316.52-2.02.341-.36-.09-.738-.198-1.045.144-.306.324-.198.737-.09 1.115.18.683.343 1.312-.306 1.995-.668.684-1.37.612-2.074.54-.072 0-.162-.018-.234-.018-.018.198-.072.413-.216.575h-.018zm11.087-14.959c.144-.252.793-.432 1.153-.503.45-.09.92-.144 1.172-.396.252.27.721.306 1.172.396.36.071 1.01.27 1.154.503-.109.234-.613.575-1.064.503-.45-.09-.685-.323-1.244-.323-.559 0-.793.252-1.244.323-.487.09-.991-.27-1.1-.503zm5.858-.557c.397-2.158.703-2.086.758-2.823.09-.99-.163-1.33-.343-1.726-.072.018-.956-.144-.956.215-.017.45-.558.432-1.009.432-.505 0-.92-.234-1.46-.288.018-.287.108-1.078.414-1.06.866.053 1.605-.306 2.578-.288.09 0 .18.108.253.233 0-.161.018-.341.054-.557a7.71 7.71 0 00-3.84-1.079c-1.298 0-2.614.36-3.84 1.08a3.4 3.4 0 01.054.556c.072-.125.163-.215.253-.233.973-.018 1.73.341 2.578.287.306-.017.396.774.414 1.061-.54.054-.955.288-1.46.288-.45 0-.992.018-1.01-.432-.018-.341-.883-.18-.955-.215-.18.395-.433.737-.342 1.726.072.737.36.683.757 2.823a.41.41 0 00.288.125c.252 0-.018-.287.343-.899.558-.287 1.532-1.078 2.055-.737.559.36 1.135.378 1.694 0 .523-.341 1.514.468 2.055.737.36.612.09.9.343.9a.52.52 0 00.324-.126zm2.47-8.02C38.85 13 38.128 8.776 35.01 8.829c-3.209 0-3.858 4.19-6.021 5.898 4.056-2.5 7.319-2.59 12.024 0zm-10.96 6.797c-.199 2.715-.09 4.063 1.82 7.066 1.478.611 2.524 1.15 3.119 1.15.595 0 1.622-.503 3.083-1.096 1.965-3.039 2.073-4.351 1.893-7.12l.054-.324c.126-.054.234-.108.342-.18.811-.449 1.623-1.258 1.911-2.157.126-.378.162-.737.108-1.079 0-.036.018-.054 0-.09 0-.108-.018-.233-.054-.341-.306-.648-1.136-1.33-2.307-1.888-1.659-.99-3.912-1.582-5.012-1.582-1.136 0-3.443.61-5.12 1.636a9.282 9.282 0 00-2.037 1.582 2.319 2.319 0 00-.108 1.744c.306.899 1.1 1.69 1.91 2.157.11.072.217.144.343.198l.055.324zm2.776 26.412c.27.27.36.612.396 1.007h3.57c.036-.395.126-.737.396-1.007.92-.503.054-.953 1.28-1.276.667-.18 2.254-.18 3.245-.36.433-.072.92-.162 1.442-.27 3.3-.665 7.752-3.56 9.915-6.059.541-.629.866-.989.65-1.96.017-.809-.866-4.422-2.128-5.555-.595-1.996-2.019-5.358-5.678-5.304-1.208.018-2.164-1.043-3.84-1.115-1.046-.072-1.316-.971-1.334-1.834 2.866-1.205 5.12-7.336 3.75-7.803-.614-.216-2.164-1.313-2.597-2.464-1.604-3.47-3.1-6.364-6.868-6.346-3.804-.036-5.282 2.858-6.904 6.328-.433 1.133-1.983 2.248-2.596 2.464-1.37.467.901 6.652 3.785 7.821-.018.863-.27 1.744-1.37 1.834-1.658.054-2.632 1.133-3.84 1.115-3.659-.054-5.083 3.308-5.678 5.304-1.262 1.133-2.145 4.746-2.127 5.556-.217.97.09 1.33.649 1.96 2.163 2.498 6.616 5.393 9.915 6.059.54.107 1.027.197 1.442.27.991.18 2.578.18 3.245.359 1.226.323.36.773 1.28 1.276z" fill="#D8DADB"/></g><defs><clipPath id="clip0_98_62"><path fill="#fff" d="M0 0h70v68H0z"/></clipPath></defs></svg>