<svg width="78" height="78" viewBox="0 0 78 78" fill="none" xmlns="http://www.w3.org/2000/svg"><path d="M75.77 10.663a2.939 2.939 0 00-4.157-.005L36.346 45.832l-12.724-13.82a2.94 2.94 0 00-4.325 3.983l14.797 16.069a2.936 2.936 0 002.162.948c.777 0 1.525-.308 2.076-.857l37.432-37.334a2.94 2.94 0 00.006-4.158z" fill="#D1C396"/><path d="M75.06 36.06A2.94 2.94 0 0072.12 39c0 18.263-14.857 33.12-33.12 33.12C20.738 72.12 5.88 57.264 5.88 39 5.88 20.738 20.737 5.88 39 5.88A2.94 2.94 0 1039 0C17.495 0 0 17.495 0 39c0 21.504 17.495 39 39 39 21.504 0 39-17.496 39-39a2.94 2.94 0 00-2.94-2.94z" fill="#D1C396"/></svg>