<svg width="78" height="78" viewBox="0 0 78 78" fill="none" xmlns="http://www.w3.org/2000/svg"><path d="M39 78C17.495 78 0 60.505 0 39S17.495 0 39 0s39 17.495 39 39-17.495 39-39 39zm0-72.429C20.568 5.571 5.571 20.568 5.571 39c0 18.432 14.997 33.429 33.429 33.429 18.432 0 33.429-14.997 33.429-33.429C72.429 20.568 57.432 5.571 39 5.571z" fill="#D1C396"/><path d="M52.929 55.714a2.775 2.775 0 01-1.97-.816L23.102 27.04a2.784 2.784 0 113.939-3.939L54.898 50.96a2.784 2.784 0 01-1.97 4.755z" fill="#D1C396"/><path d="M25.071 55.714a2.784 2.784 0 01-1.97-4.755L50.96 23.102a2.784 2.784 0 113.939 3.939L27.04 54.898a2.775 2.775 0 01-1.97.816z" fill="#D1C396"/></svg>