<svg width="29" height="34" viewBox="0 0 29 34" fill="none" xmlns="http://www.w3.org/2000/svg"><path d="M24.7 17.237a1.317 1.317 0 00-.94-.393 1.327 1.327 0 00-.94.388 1.307 1.307 0 00-.381.937 1.299 1.299 0 00.407.927 11.687 11.687 0 012.61 3.83c.603 1.437.912 2.979.908 4.536 0 1.599-4.622 3.923-11.864 3.923-7.242 0-11.864-2.325-11.864-3.926-.004-1.546.3-3.077.897-4.505a11.682 11.682 0 012.577-3.816 1.308 1.308 0 00.397-.928 1.299 1.299 0 00-.386-.933A1.32 1.32 0 004.673 17c-.16.068-.306.166-.427.29a14.282 14.282 0 00-3.15 4.664A14.19 14.19 0 000 27.462C0 31.708 7.47 34 14.5 34S29 31.708 29 27.462a14.18 14.18 0 00-1.11-5.543 14.276 14.276 0 00-3.19-4.682z" fill="#fff"/><path d="M14.5 18.308a9.28 9.28 0 005.126-1.543 9.17 9.17 0 003.399-4.108 9.086 9.086 0 00.525-5.289 9.131 9.131 0 00-2.525-4.687A9.25 9.25 0 0016.3.176a9.296 9.296 0 00-5.331.52 9.212 9.212 0 00-4.141 3.372 9.102 9.102 0 00-1.555 5.086 9.128 9.128 0 002.705 6.47 9.275 9.275 0 006.522 2.684zm0-15.693c1.304 0 2.578.384 3.662 1.102a6.55 6.55 0 012.427 2.935 6.49 6.49 0 01.375 3.777 6.522 6.522 0 01-1.803 3.348 6.607 6.607 0 01-3.375 1.79 6.64 6.64 0 01-3.808-.372 6.58 6.58 0 01-2.958-2.409 6.501 6.501 0 01-1.11-3.632 6.52 6.52 0 011.932-4.621A6.626 6.626 0 0114.5 2.615z" fill="#fff"/></svg>