<svg width="50" height="52" viewBox="0 0 50 52" fill="none" xmlns="http://www.w3.org/2000/svg"><path d="M9.651 47.455l5.358-5.696m-5.317-5.653l-1.65 1.755m-2.327 2.473l-1.381 1.468m3.204 7.9l-.696.74a1.72 1.72 0 01-2.537 0l-2.78-2.956a1.994 1.994 0 010-2.698l.696-.74m5.696 1.52l5.317-5.652m-7.126 3.73l5.317-5.653m-5.662 9.865l-.675.718c-.7.745-1.462 1.144-1.7.89l-.946-1.005c-.238-.253.136-1.063.837-1.808l.675-.718m13.169-6.422c1.076-1.12 2.62-1.566 4.084-1.179l7.293 1.934m9.64-36.794a4.28 4.28 0 01.992 2.063c1.247-.265 2.592.115 3.56 1.142.966 1.028 1.323 2.458 1.074 3.784 1.25.26 2.358 1.159 2.882 2.504a4.408 4.408 0 01-.371 3.936c1.058.747 1.756 2.028 1.756 3.482.001 1.453-.696 2.733-1.754 3.482a4.4 4.4 0 01.374 3.935c-.523 1.346-1.63 2.247-2.88 2.507.25 1.326-.106 2.756-1.071 3.783-.926.985-2.197 1.377-3.397 1.177-.166 1.239-.852 2.385-1.956 3.05a3.722 3.722 0 01-3.386.25 5.44 5.44 0 01-.066.173 3.25 3.25 0 01-2.134 1.94m-19.96-6.823c1.054-1.143 1.475-2.786 1.11-4.342l-2.219-9.46c-.383-1.638.375-3.369 1.836-4.03a4.97 4.97 0 01.163-.07 4.408 4.408 0 01.236-3.599c.624-1.173 1.703-1.902 2.868-2.078-.188-1.277.18-2.628 1.107-3.61.968-1.028 2.311-1.407 3.559-1.14.246-1.33 1.093-2.507 2.358-3.062 1.265-.556 2.645-.358 3.701.397C27.227 1.74 28.432 1 29.8 1c1.367.001 2.572.742 3.276 1.867a3.785 3.785 0 012.073-.71M17.103 26.869l-1.452 5.559c-.237.91-1.02 2.148-2.072 3.277m1.809 1.922c1.062-1.117 2.228-1.95 3.08-2.203l5.231-1.543M7.311 49.503L2.408 44.29a1.692 1.692 0 010-2.29 1.46 1.46 0 012.154 0l4.903 5.213a1.692 1.692 0 010 2.289 1.46 1.46 0 01-2.154 0zm7.47-7.942L9.878 36.35a1.692 1.692 0 010-2.29 1.46 1.46 0 012.154 0l4.903 5.213a1.692 1.692 0 010 2.29 1.46 1.46 0 01-2.153 0zm22.272-10.753a.884.884 0 000-1.05c-.73-.972-1.853-1.595-3.114-1.595s-2.385.623-3.115 1.594a.884.884 0 000 1.051c.73.971 1.854 1.594 3.115 1.594 1.26 0 2.384-.623 3.114-1.594zm-9.574-20.27a.756.756 0 00-.988 0c-.914.776-1.5 1.97-1.5 3.31 0 1.341.586 2.536 1.5 3.312.288.245.7.245.988 0 .914-.776 1.5-1.97 1.5-3.311 0-1.34-.586-2.535-1.5-3.312zm-6.99.648a.756.756 0 00-.989 0 4.337 4.337 0 00-1.5 3.312c0 1.34.587 2.534 1.5 3.31.29.246.7.246.989 0 .914-.776 1.5-1.97 1.5-3.31s-.586-2.535-1.5-3.312z" stroke="#D1C396" stroke-width="2" stroke-miterlimit="10" stroke-linecap="round" stroke-linejoin="round"/></svg>