<svg width="52" height="55" viewBox="0 0 52 55" fill="none" xmlns="http://www.w3.org/2000/svg"><path d="M48.945 37.383H46.52v-5.046a1.08 1.08 0 00-.598-.98l-6.17-2.94a.967.967 0 00-1.129.221l-1.288 1.37-7.393-.748a.996.996 0 00-.968.526L27.54 32.39l-1.182-1.257a3.441 3.441 0 00-5.053-.015l-2.064 2.17-2.018-2.144c-1.397-1.485-3.67-1.485-5.067 0l-5.868 6.238H3.27c-1.672 0-3.032 1.446-3.032 3.222v11.172C.238 53.554 1.598 55 3.27 55h45.675c1.671 0 3.031-1.446 3.031-3.223V40.605c0-1.776-1.36-3.222-3.031-3.222zM39.56 30.68l4.938 2.352v4.35H33.257l6.304-6.702zm-9.168.782l5.09.515-4.166 4.428-2.3-2.446 1.376-2.497zm-7.667 1.184a1.5 1.5 0 012.203.006l4.449 4.73H23.09l-2.421-2.574 2.056-2.162zm-9.14.017a1.499 1.499 0 012.208 0l4.439 4.719H9.145l4.44-4.719zm36.37 9.768H38.383c-.558 0-1.01.48-1.01 1.074 0 .593.452 1.074 1.01 1.074h11.572v7.197c0 .593-.453 1.075-1.01 1.075H3.27c-.557 0-1.01-.482-1.01-1.075V49.2h11.085c.558 0 1.01-.48 1.01-1.074 0-.593-.452-1.074-1.01-1.074H2.26v-6.446c0-.592.454-1.074 1.01-1.074h45.676c.557 0 1.01.482 1.01 1.075v1.826zM50.966 5.8H29.867c-1.937 0-3.781-.834-5.194-2.351C22.632 1.257 19.613 0 16.393 0c-5.906 0-10.71 4.24-10.71 9.453 0 4.156 3.054 7.694 7.286 8.958v3.61c0 .594.452 1.075 1.01 1.075.559 0 1.011-.481 1.011-1.074v-3.197a12.197 12.197 0 002.13.059v4.964c0 .593.452 1.074 1.01 1.074s1.01-.481 1.01-1.074v-5.255c2.151-.5 4.087-1.583 5.533-3.136 1.413-1.516 3.257-2.352 5.194-2.352h21.099c.558 0 1.01-.48 1.01-1.074V6.875c0-.593-.452-1.074-1.01-1.074zM17.12 16.73c-.24.016-.482.028-.727.028-.477 0-.946-.034-1.403-.097v-1.538a7.627 7.627 0 002.13.096v1.51zm1.01-7.523c-.558 0-1.01.48-1.01 1.074v2.78c-.237.029-.48.044-.727.044-2.563 0-4.648-1.638-4.648-3.652 0-2.014 2.086-3.652 4.649-3.652s4.648 1.638 4.648 3.652c0 1.207-.75 2.278-1.901 2.944V10.28c0-.594-.453-1.074-1.01-1.074zm31.825 1.75H29.867c-2.48 0-4.835 1.061-6.63 2.989-1.076 1.155-2.5 1.989-4.096 2.436v-1.645c2.31-.913 3.922-2.937 3.922-5.284 0-3.198-2.992-5.8-6.67-5.8-3.677 0-6.669 2.602-6.669 5.8 0 2.11 1.303 3.96 3.245 4.976v1.737c-3.094-1.12-5.266-3.707-5.266-6.713 0-4.028 3.898-7.305 8.69-7.305 2.685 0 5.18 1.025 6.844 2.813 1.795 1.927 4.15 2.988 6.63 2.988h20.088v3.008zM6.107 27.92l-.8-1.067a2.377 2.377 0 01-.002-2.831l.81-1.085a1.12 1.12 0 00-.163-1.51.97.97 0 00-1.42.174l-.81 1.085a4.622 4.622 0 00.004 5.506l.8 1.067c.624.833.625 1.997.002 2.832a1.12 1.12 0 00.163 1.509.969.969 0 001.42-.174 4.622 4.622 0 00-.004-5.506zm39.508-5.246l-.8-1.067a2.377 2.377 0 01-.002-2.832l.81-1.084a1.12 1.12 0 00-.163-1.51.97.97 0 00-1.42.174l-.81 1.085a4.622 4.622 0 00.004 5.506l.8 1.067c.624.833.625 1.997.002 2.831a1.12 1.12 0 00.163 1.51.97.97 0 00.628.233c.298 0 .593-.14.792-.407a4.622 4.622 0 00-.004-5.506zm-26.77 4.066a.988.988 0 00-.715-.314.988.988 0 00-.714.315 1.118 1.118 0 000 1.519c.188.2.448.314.714.314a.988.988 0 00.715-.314 1.118 1.118 0 000-1.52z" fill="#D1C396"/><path d="M17.496 47.366a.99.99 0 00-.715-.315.99.99 0 00-.715.315c-.188.2-.295.477-.295.759 0 .282.107.56.295.76a.99.99 0 00.715.314.992.992 0 00.715-.314 1.118 1.118 0 000-1.52z" fill="#D1C396"/></svg>