<svg width="51" height="53" viewBox="0 0 51 53" fill="none" xmlns="http://www.w3.org/2000/svg"><path d="M43.303 19.933a1.037 1.037 0 00-.414-.658.944.944 0 00-.73-.155.948.948 0 00-.498.283.99.99 0 00-.21.336 1.085 1.085 0 00.21 1.127.952.952 0 00.688.304.952.952 0 00.81-.46 1.068 1.068 0 00.164-.575c0-.068-.007-.136-.02-.202zm-4.654-.833h-8.855c-.538 0-.974.463-.974 1.035 0 .572.436 1.035.974 1.035h8.855c.538 0 .974-.463.974-1.035 0-.572-.436-1.035-.974-1.035zm-30.779.833a1.086 1.086 0 00-.266-.53.949.949 0 00-.317-.224.908.908 0 00-.745 0 .97.97 0 00-.315.224.992.992 0 00-.212.336 1.094 1.094 0 00.09.97.986.986 0 00.62.441.923.923 0 00.73-.154.971.971 0 00.149-.13 1.077 1.077 0 00.265-.933zm11.6-.833h-8.855c-.537 0-.974.463-.974 1.035 0 .572.437 1.035.974 1.035h8.855c.538 0 .974-.463.974-1.035 0-.572-.436-1.035-.974-1.035z" fill="#D1C396"/><path d="M50.585 39.527a1.006 1.006 0 00-.775-.824 16.395 16.395 0 00-3.835-.224V24.38h1.349c.537 0 .973-.464.973-1.035v-6.422c0-.572-.436-1.035-.973-1.035H1.94c-.538 0-.974.463-.974 1.035v6.422c0 .571.436 1.035.974 1.035h1.348v27.584c0 .571.436 1.035.974 1.035h32.59a.92.92 0 00.393-.088 4.227 4.227 0 002.022-.078 17.41 17.41 0 001.818.097c2.238 0 5.303-.452 7.306-2.581 3.427-3.644 2.245-10.531 2.193-10.823zM2.915 22.31v-4.35H46.35v4.35H2.914zm41.113 2.07v8.367h-6.2V24.38h6.2zm-8.148 0v8.367h-6.2V24.38h6.2zm-8.148 0v8.367h-6.2V24.38h6.2zm-8.148 0v8.367h-6.2V24.38h6.2zm-8.147 0v8.367h-6.2V24.38h6.2zm0 26.55h-6.2v-8.905h6.2v8.905zm8.147 0h-6.2v-8.905h6.2v8.905zm8.148 0h-6.2v-8.905h6.2v8.905zm1.948 0v-8.905h.692c0 .194.017.388.048.578.053.321.23 1.02.8 1.619-.57.6-.747 1.297-.8 1.619-.304 1.835.873 4.003 2.52 4.64.29.112.946.298 1.72.073.032.133.073.259.118.376H29.68zm5.56-3.514c-.522.96-1.071 1.338-1.634 1.12-.756-.293-1.408-1.493-1.268-2.336.104-.626.686-.943 1.73-.943.05 0 .1-.004.148-.012a4.322 4.322 0 001.11 2.038.947.947 0 00-.086.133zm-1.634-7.509c.562-.217 1.112.16 1.633 1.12.026.048.055.092.086.133a4.322 4.322 0 00-1.11 2.039.933.933 0 00-.148-.012c-1.044 0-1.625-.318-1.73-.944-.139-.842.513-2.043 1.27-2.336zm5.76 10.608c-.616.55-1.92.55-2.536 0-.458-.409-.426-1.103.096-2.064a1.01 1.01 0 00.064-.143 3.773 3.773 0 002.216 0c.018.049.04.096.065.143.522.96.554 1.655.096 2.064zM38.1 46.404c-1.132 0-2.053-.98-2.053-2.182 0-1.203.92-2.182 2.053-2.182 1.131 0 2.052.979 2.052 2.182 0 1.203-.92 2.182-2.053 2.182zm-1.269-8.475c.616-.55 1.92-.55 2.537 0 .458.409.426 1.103-.096 2.064a1.063 1.063 0 00-.065.142 3.77 3.77 0 00-2.216 0 1.081 1.081 0 00-.064-.142c-.522-.961-.554-1.655-.096-2.064zm3.789-1.586c-1.343-1.198-3.698-1.198-5.04 0l-.01.007H12.41c-.538 0-.974.464-.974 1.036 0 .571.436 1.035.974 1.035h19.723a4.5 4.5 0 00-1.248 1.533H5.237v-5.137h38.79v3.576c-.24-.18-.5-.326-.77-.431a2.723 2.723 0 00-1.72-.073 3.089 3.089 0 00-.918-1.546zm3.24 5.9c-.104.626-.686.944-1.73.944-.05 0-.1.004-.148.012a4.323 4.323 0 00-1.109-2.039.932.932 0 00.085-.132c.522-.96 1.071-1.338 1.634-1.12.756.292 1.408 1.493 1.268 2.335zm-2.902 5.173a1.035 1.035 0 00-.085-.133 4.32 4.32 0 001.11-2.038.921.921 0 00.148.012c1.043 0 1.625.317 1.729.944.14.842-.512 2.042-1.268 2.335-.562.218-1.112-.16-1.634-1.12zm6.058 1.47c-1.444 1.535-3.739 1.936-5.57 1.975.035-.097.066-.2.092-.307.773.225 1.43.04 1.72-.073 1.646-.637 2.824-2.805 2.52-4.64a3.144 3.144 0 00-.8-1.62 3.151 3.151 0 00.8-1.618c.109-.658.027-1.36-.198-2.017a15.067 15.067 0 013.19.05c.183 1.698.393 5.967-1.754 8.25zM31.004 8.732c-.344-.412-.534-.64-.534-1.18 0-.54.19-.766.534-1.178.097-.117.197-.237.299-.372a1.08 1.08 0 00-.155-1.455.935.935 0 00-1.368.164c-.07.093-.149.188-.233.288-.432.518-1.024 1.227-1.024 2.554 0 1.326.592 2.035 1.024 2.553.344.412.534.639.534 1.179s-.19.767-.534 1.179a6.107 6.107 0 00-.489.645c-.3.474-.184 1.117.262 1.438.167.12.357.177.544.177a.96.96 0 00.808-.455 4.39 4.39 0 01.332-.431c.432-.518 1.025-1.227 1.025-2.553 0-1.326-.593-2.036-1.025-2.553zM25.407 4.41c-.344-.412-.534-.639-.534-1.179s.19-.767.534-1.179a8.89 8.89 0 00.299-.372A1.08 1.08 0 0025.55.226a.935.935 0 00-1.368.164 8.75 8.75 0 01-.233.288c-.432.518-1.024 1.227-1.024 2.553 0 1.326.592 2.035 1.024 2.553.344.412.534.64.534 1.18 0 .54-.19.766-.534 1.178-.154.185-.329.394-.489.646-.3.473-.184 1.117.262 1.437.167.12.357.177.544.177a.96.96 0 00.808-.455c.088-.138.207-.28.332-.43.432-.519 1.024-1.228 1.024-2.554 0-1.326-.592-2.035-1.024-2.553zm-5.89 4.322c-.344-.412-.534-.64-.534-1.18 0-.54.19-.766.534-1.178.097-.117.197-.237.299-.372a1.08 1.08 0 00-.155-1.455.935.935 0 00-1.368.164c-.07.093-.149.188-.233.288-.432.518-1.024 1.227-1.024 2.554 0 1.326.592 2.035 1.024 2.553.344.412.534.639.534 1.179s-.19.767-.534 1.179a6.107 6.107 0 00-.489.645c-.3.474-.184 1.117.262 1.438.167.12.356.177.544.177a.96.96 0 00.808-.455c.088-.139.206-.28.332-.431.432-.518 1.024-1.227 1.024-2.553 0-1.326-.592-2.036-1.024-2.553z" fill="#D1C396"/></svg>