<svg width="44" height="52" viewBox="0 0 44 52" fill="none" xmlns="http://www.w3.org/2000/svg"><path d="M12.846 46.2c-4.655 0-8.43-3.984-8.43-8.9v-9.22h38.34v9.22c0 4.916-3.774 8.9-8.43 8.9h-6.668 6.382c2.777 1.062 3.139 4.8 3.139 4.8H9.707s.362-3.738 3.14-4.8zm0 0h6.347m9.21-23.208l1.499-1.583M21.973 16.6l1.5 1.584m-5.597 3.32l-1.409 1.488m6.914 3.227l1.761 1.86m-3.445-16.456C12.357 17.416 6.86 28.08 6.86 28.08h33.453s-5.498-10.662-14.838-16.456a3.565 3.565 0 00-3.778 0zm-3.762 2.736c-2.318 1.938-4.31 4.089-5.941 6.1L9.276 18.92c-1.97-1.115-2.361-3.92-.781-5.589l4.233-4.47 5.207 5.498zM12.728 8.86L6.095 1.857a2.668 2.668 0 00-3.918 0C.939 3.164 1.145 5.34 2.604 6.363l7.509 5.26 2.615-2.762z" stroke="#D1C396" stroke-width="2" stroke-miterlimit="10" stroke-linecap="round" stroke-linejoin="round"/></svg>