<svg width="46" height="54" viewBox="0 0 46 54" fill="none" xmlns="http://www.w3.org/2000/svg"><path d="M10.622 1l2.596 14.216c.537 2.948.416 4.958 2.255 7.265l4.583 5.752c1.464 1.815.38 4.62-2.075 4.137-5.326-1.048-4.665-3.607-13.322-5.237-3.97-.746-4.015-4.715-2.88-6.87 1.284-2.441 2.278-2.06 1.619-5.763L1.002 1h9.62zm0 0h5.96l2.593 14.216c.538 2.948.42 4.958 2.258 7.265l4.58 5.752c1.467 1.815.383 4.62-2.075 4.137-1.517-.3-2.55-.722-3.448-1.207m12.905-15.37c.172.18 1.487 1.376 1.422 3.572.065 2.199-1.25 3.391-1.422 3.574-.172.183-1.486 1.375-1.422 3.574-.064 2.196 1.25 3.388 1.422 3.571m6.02-14.29c.174.18 1.486 1.375 1.421 3.571.065 2.199-1.247 3.391-1.422 3.574-.171.183-1.483 1.375-1.419 3.574-.064 2.196 1.248 3.388 1.42 3.571m-11.363 6.69h14.043c1.199 0 2.179 1.043 2.179 2.319 0 1.273-.98 2.316-2.18 2.316m0 0H5.09m37.005 0c0 3.304 0 11.591-10.212 11.591H15.301C5.09 53 5.09 44.713 5.09 41.409m0 0c-1.197 0-2.176-1.043-2.176-2.316 0-1.276.98-2.319 2.176-2.319h14.043m4.465 0h-.006" stroke="#D1C396" stroke-width="2" stroke-miterlimit="10" stroke-linecap="round" stroke-linejoin="round"/></svg>