<svg width="50" height="52" viewBox="0 0 50 52" fill="none" xmlns="http://www.w3.org/2000/svg"><path d="M35.292 50.824a1 1 0 101.97.352l-1.97-.352zm3.116-6.05a1 1 0 10-1.968-.353l1.968.353zm-.82-6.764a1 1 0 101.966.37l-1.966-.37zm4.425-18.108v-1a1 1 0 00-.983.816l.983.184zm6.023 0l.983.182a1 1 0 00-.983-1.182v1zM42.3 51v1a1 1 0 00.983-.819L42.3 51zM6.736 51l-.984.181a1 1 0 00.984.819v-1zM1 19.902v-1a1 1 0 00-.983 1.182L1 19.902zm6.023 0l.982-.184a1 1 0 00-.982-.816v1zM9.482 38.38a1 1 0 101.966-.37l-1.966.37zm3.115 6.041a1 1 0 10-1.969.353l1.969-.353zm-.822 6.755a1 1 0 101.969-.352l-1.969.352zM5.59 43.598a1 1 0 100 2v-2zm37.857 2a1 1 0 000-2v2zM4.443 37.195a1 1 0 100 2v-2zm40.15 2a1 1 0 100-2v2zM2.723 28.05a1 1 0 100 2v-2zm43.593 2a1 1 0 100-2v2zm-12.202-.867a1 1 0 00-1.982-.266l1.982.266zm-3.211 8.88a1 1 0 101.982.266l-1.982-.266zm1.163 6.663a1 1 0 00-1.983-.254l1.983.254zm-2.803 6.148a1 1 0 001.984.254l-1.984-.254zM16.905 28.916a1 1 0 10-1.982.266l1.982-.266zm-.752 9.412a1 1 0 101.982-.266l-1.982.266zm2.802 6.143a1 1 0 00-1.984.254l1.984-.254zm-1.165 6.656a1 1 0 001.984-.254l-1.984.254zm7.728-22.078a1 1 0 10-2 0h2zm-2 9.146a1 1 0 102 0h-2zm2 6.403a1 1 0 10-2 0h2zm-2 6.402a1 1 0 102 0h-2zm7.016-31.242a1 1 0 00-1.94-.487l1.94.487zm-.536 9.791a1 1 0 101.732-1l-1.732 1zm-6.875-9.718a1 1 0 10-1.457 1.37l1.457-1.37zm16.782-9.422a1 1 0 101.457-1.37l-1.457 1.37zm-2.573-5.654a1 1 0 10-1.457 1.37l1.457-1.37zm-8.126-.015a1 1 0 10-1.456 1.371l1.456-1.37zm8.113 1.37a1 1 0 00-1.457-1.37l1.457 1.37zm-3.41 22.264a1 1 0 101.474 1.35l-1.475-1.35zm1.257-11.457l-.945-.328a1 1 0 00.15.934l.795-.606zm5.462-7.2l-.726-.688.725.688zm4.17-4.405l.728.685a1 1 0 000-1.37l-.729.685zM40.74 1l.729-.685a1 1 0 00-1.457 0L40.74 1zM36.6 5.435l-.732-.681.732.681zm-6.763 5.816l-.653.757a1 1 0 001.018.174l-.365-.931zm-2.631-2.604a1 1 0 10-.608 1.906l.608-1.906zm-7.736 3.534a1 1 0 00-1.356-1.471l1.356 1.47zm-1.13-.288l-.729-.685.729.685zm-2.03 2.157l-.728-.685a1 1 0 000 1.37l.728-.685zm2.936 2.264l.385.923a1 1 0 00.088-1.804l-.473.88zM16.31 18.36l.728.685-.728-.685zm-2.028 2.155l-.729-.685a1 1 0 000 1.37l.729-.685zm2.916 2.253l.958.289a1 1 0 00-.483-1.169l-.475.88zm-1.86 6.242a1 1 0 101.998.076l-1.998-.076zM37.26 51.176l1.147-6.402-1.968-.353-1.148 6.403 1.97.352zm2.293-12.796l3.441-18.293-1.965-.37-3.442 18.293 1.966.37zm2.459-17.478h6.023v-2h-6.023v2zm5.039-1.181l-5.736 31.098 1.967.362 5.736-31.097-1.967-.363zM42.3 50H6.736v2H42.3v-2zm-34.58.819L1.984 19.72l-1.966.363L5.753 51.18l1.967-.362zM1.001 20.902h6.023v-2H1v2zm5.04-.815L9.482 38.38l1.966-.37-3.442-18.292-1.965.37zm4.587 24.687l1.147 6.402 1.969-.352-1.147-6.403-1.969.353zm-5.038.824h37.857v-2H5.59v2zm-1.147-6.403h40.15v-2H4.444v2zM2.722 30.05h43.593v-2H2.722v2zm29.409-1.133l-1.23 9.146 1.983.266 1.23-9.146-1.983-.266zm-2.05 15.555l-.819 6.402 1.984.254.82-6.403-1.985-.253zm-15.158-15.29l1.23 9.146 1.982-.266-1.23-9.146-1.982.266zm2.048 15.543l.82 6.402 1.983-.254-.819-6.402-1.984.254zm6.547-15.676v9.146h2V29.05h-2zm0 15.549V51h2v-6.402h-2zm5.076-25.327c-.18.718-.303 1.449-.367 2.185l1.992.175c.055-.632.16-1.258.315-1.873l-1.94-.487zm-.368 2.186c-.24 2.777.347 5.625 1.772 8.092l1.732-1c-1.211-2.097-1.718-4.533-1.511-6.919l-1.993-.173zm-6.56-.256c2.17 2.308 5.483 2.722 8.063 1.205l-1.013-1.724c-1.779 1.045-4.065.774-5.593-.85l-1.457 1.37zM41.362 9.038l-4.03-4.283-1.457 1.37 4.03 4.284 1.457-1.37zM27.75 6.111c2.635 2.8 6.934 2.801 9.569 0l-1.457-1.37c-1.845 1.961-4.81 1.961-6.656 0L27.75 6.11zm-5.188 3.222c0 .024-.008.034-.008.034s.004-.005.014-.01a.095.095 0 01.038-.007v2c1.137 0 1.956-.962 1.956-2.017h-2zm.044.017a.092.092 0 01.053.017s-.009-.01-.009-.034h-2c0 1.055.82 2.017 1.956 2.017v-2zm.044-.017c0-.024.009-.033.009-.033l-.015.009a.096.096 0 01-.038.008v-2c-1.137 0-1.956.961-1.956 2.016h2zm-.044-.016a.095.095 0 01-.038-.008c-.01-.005-.014-.009-.014-.01 0 0 .008.01.008.034h2c0-1.055-.819-2.016-1.956-2.016v2zm12.777 20.407c3.398-3.71 3.584-9.476.578-13.414l-1.59 1.213c2.43 3.182 2.27 7.866-.463 10.85l1.475 1.351zm.728-12.48c.662-1.908 1.196-2.57 5.242-6.839L39.902 9.03c-3.986 4.204-4.853 5.173-5.68 7.559l1.889.655zm5.242-6.838c1.11-1.172 2.479-2.61 4.173-4.409l-1.457-1.37c-1.69 1.796-3.054 3.228-4.167 4.402l1.451 1.377zm4.173-5.78L41.47.316l-1.457 1.37 4.056 4.312 1.457-1.37zM40.013.316c-1.694 1.8-3.045 3.256-4.146 4.439l1.464 1.362c1.103-1.185 2.45-2.635 4.139-4.43L40.013.314zm-4.146 4.439c-3.974 4.269-4.613 4.867-6.396 5.566l.73 1.862c2.288-.897 3.237-1.884 7.13-6.066l-1.464-1.362zm-5.377 5.74a9.39 9.39 0 00-3.285-1.847l-.608 1.906a7.39 7.39 0 012.586 1.455l1.307-1.514zm-12.377.216c-.172.159-.34.325-.503.498l1.457 1.37c.131-.139.265-.271.402-.397l-1.356-1.471zm-.503.498l-2.027 2.156 1.456 1.37 2.028-2.155-1.457-1.37zm-2.027 3.526a12.524 12.524 0 003.19 2.46l.948-1.762a10.525 10.525 0 01-2.682-2.068l-1.456 1.37zm3.279.656c-1.2.5-2.32 1.264-3.28 2.286l1.458 1.37a7.533 7.533 0 012.592-1.81l-.77-1.846zm-3.28 2.285l-2.028 2.156 1.457 1.37 2.028-2.155-1.456-1.37zm-2.027 3.527a12.517 12.517 0 003.17 2.447l.949-1.76a10.515 10.515 0 01-2.663-2.058l-1.456 1.37zm2.687 1.279c-.626 2.076-.834 4.717-.903 6.53l1.998.076c.068-1.785.272-4.211.82-6.029l-1.915-.577z" fill="#D1C396"/></svg>