<svg width="52" height="55" viewBox="0 0 52 55" fill="none" xmlns="http://www.w3.org/2000/svg"><path d="M51.517 26.83a.989.989 0 00-.79-.404H39.522a3.284 3.284 0 00.046-1.873c1.566-.06 2.823-1.433 2.823-3.113a3.18 3.18 0 00-1.171-2.49l.292-.31c.554-.589.858-1.37.858-2.203 0-.832-.304-1.614-.858-2.202a2.811 2.811 0 00-4.143 0l-.292.311a3.04 3.04 0 00-.682-.694l.256-.273c.553-.588.858-1.37.858-2.202 0-.832-.305-1.614-.858-2.202a2.811 2.811 0 00-4.143 0l-.292.311a3.02 3.02 0 00-.846-.807c1.002-1.222.956-3.082-.137-4.245a2.822 2.822 0 00-2.485-.88v-.44c0-1.717-1.314-3.114-2.93-3.114-1.615 0-2.929 1.397-2.929 3.114v.44a2.822 2.822 0 00-2.484.88 3.196 3.196 0 00-.858 2.202c0 .76.255 1.477.72 2.044a3.024 3.024 0 00-.845.806l-.293-.31a2.826 2.826 0 00-2.071-.913c-.783 0-1.518.324-2.072.912-1.142 1.214-1.142 3.19 0 4.404l.297.316a3.021 3.021 0 00-.621.65l-.292-.31a2.811 2.811 0 00-4.143 0 3.196 3.196 0 00-.858 2.202 3.2 3.2 0 00.858 2.203l.293.31a3.18 3.18 0 00-1.172 2.49c0 1.68 1.258 3.053 2.824 3.112a3.284 3.284 0 00.046 1.874H1.011a.99.99 0 00-.79.404 1.123 1.123 0 00-.196.907l5.627 26.426c.104.49.514.837.986.837H45.1c.472 0 .881-.347.986-.837l5.627-26.426a1.126 1.126 0 00-.196-.908zm-8.881 1.744l-1.9 9.314h-5.858l1.464-9.314h6.294zM23.312 23.67l-1.479-1.572a.991.991 0 01-.266-.683c0-.258.094-.5.266-.683a.876.876 0 01.642-.283c.243 0 .471.1.643.283l.067.071a.968.968 0 001.1.233c.378-.167.624-.558.624-.993v-2.15c0-.532.408-.966.909-.966.5 0 .908.434.908.966v2.15c0 .434.246.826.624.992a.968.968 0 001.101-.232l.067-.071a.877.877 0 01.586-.28h.02l.026-.002h.01c.243 0 .47.1.642.282.355.377.355.99 0 1.366l-1.478 1.572c-.35.372-.395.958-.107 1.385a.974.974 0 001.269.338c.427-.225.948-.056 1.187.383.11.202.144.431.108.65h-9.926a1.014 1.014 0 01.107-.65c.239-.44.76-.608 1.188-.384.443.233.98.09 1.268-.337a1.125 1.125 0 00-.106-1.385zm3.567 4.918h4.52a.944.944 0 00.152-.014h2.742l-1.464 9.314h-5.95v-9.3zm7.661 11.448h5.758l-.438 2.149h-5.658l.338-2.149zm1.726-22.529a.967.967 0 001.102-.232l1.43-1.52a.872.872 0 011.284 0c.355.376.355.989 0 1.365l-1.43 1.52c-.289.308-.375.77-.219 1.171.157.402.525.663.934.663h.094c.5 0 .908.433.908.966 0 .532-.407.966-.908.966H37.37c-.495 0-.917.38-.997.9-.08.518.204 1.023.672 1.191.452.163.709.674.585 1.164-.13.515-.629.82-1.113.683l-.013-.004-3.828-1.032a3.25 3.25 0 00-.253-.606 3.005 3.005 0 00-1.118-1.166c1.068-1.22 1.044-3.136-.073-4.323a2.94 2.94 0 00-.847-.628.888.888 0 01.378-.224c.461-.13.942.142 1.095.622.159.498.633.8 1.121.715.489-.085.847-.534.847-1.06v-2.223c0-.258.094-.5.266-.683a.876.876 0 01.642-.283c.243 0 .47.1.642.283a.99.99 0 01.266.683v.1c0 .434.247.826.624.992zM21.833 5.954a.872.872 0 011.285 0l.067.07a.967.967 0 001.1.233c.378-.166.624-.558.624-.992v-2.15c0-.532.408-.966.909-.966.5 0 .908.434.908.966v2.15c0 .434.246.826.624.992a.968.968 0 001.101-.232l.067-.071a.872.872 0 011.284 0c.355.376.355.99 0 1.366L28.68 8.51c-.99.472-1.692 1.51-1.735 2.726a2.764 2.764 0 00-1.127-.099 2.761 2.761 0 00-1.128.099c-.043-1.216-.745-2.254-1.735-2.726l-1.122-1.19a.991.991 0 01-.266-.683c0-.258.094-.5.266-.683zm-5.418 4.741a.876.876 0 01.642-.282c.243 0 .47.1.642.282l1.43 1.52a.967.967 0 001.102.233c.377-.166.623-.557.623-.992v-.1c0-.533.408-.966.909-.966.5 0 .908.434.908.966v2.223c0 .526.358.975.847 1.06.488.086.962-.217 1.12-.715.142-.444.576-.72 1.01-.641a.97.97 0 00.34 0c.433-.079.867.197 1.009.64.158.499.632.801 1.12.716.49-.085.847-.534.847-1.06v-2.223c0-.533.408-.966.909-.966.5 0 .908.434.908.966v.1c0 .434.247.826.624.992a.967.967 0 001.101-.232l1.43-1.52a.872.872 0 011.285 0 1.01 1.01 0 010 1.365l-1.276 1.357c-1.2.357-2.093 1.508-2.139 2.886a2.745 2.745 0 00-1.566-.017 2.917 2.917 0 00-1.535 1.084c-.235-1.469-1.44-2.59-2.887-2.59-1.409 0-2.588 1.061-2.867 2.471a2.898 2.898 0 00-1.453-.965 2.746 2.746 0 00-1.567.017 3.188 3.188 0 00-.856-2.09 2.867 2.867 0 00-1.42-.834l-1.24-1.319a1.011 1.011 0 010-1.366zM11.369 21.44c0-.533.407-.966.908-.966h.094c.409 0 .777-.262.934-.663.156-.401.07-.863-.22-1.17l-1.43-1.52a1.01 1.01 0 010-1.366.872.872 0 011.286 0l1.43 1.52a.967.967 0 001.1.233c.379-.167.625-.558.625-.993v-.1c0-.532.407-.966.908-.966.501 0 .909.434.909.966v2.223c0 .526.358.975.846 1.06.488.086.962-.217 1.121-.715.153-.48.634-.753 1.095-.622a.89.89 0 01.344.191 2.923 2.923 0 00-.915.66 3.196 3.196 0 00-.858 2.203 3.2 3.2 0 00.785 2.121c-.453.265-.844.66-1.119 1.166a3.254 3.254 0 00-.262.636l-3.716 1.002-.013.004c-.484.138-.983-.168-1.113-.683-.123-.49.133-1 .585-1.163.468-.17.753-.674.673-1.192-.08-.52-.503-.9-.997-.9h-2.092c-.5 0-.908-.433-.908-.966zm4.058 7.134l1.464 9.314h-6.01l-1.79-9.314h6.336zm-13.152 0H7.03l1.79 9.314H4.26l-1.984-9.314zm2.441 11.462h4.516l.413 2.149H5.174l-.458-2.149zm2.73 12.816L5.63 44.333h4.427l1.637 8.519h-4.25zm3.849-12.816h5.934l.338 2.149h-5.86l-.412-2.149zm2.463 12.816l-1.637-8.519h5.783l1.339 8.519h-5.485zm11.1 0h-3.566l-1.339-8.519h4.905v8.519zm0-10.667h-5.242l-.338-2.149h5.58v2.149zm0-4.297H18.94l-1.464-9.314h2.609c.05.008.1.014.152.014h4.622v9.3zm5.618 14.964H26.88v-8.519h4.935l-1.34 8.519zm1.677-10.667H26.88v-2.149h5.61l-.337 2.149zm5.531 10.667h-5.16l1.34-8.519h5.557l-1.737 8.519zm6.609 0h-4.54l1.736-8.519h4.618l-1.814 8.519zm2.271-10.667h-4.636l.438-2.149h4.656l-.458 2.149zm.911-4.279a.953.953 0 00-.183-.018h-4.488l1.9-9.314h4.759l-1.988 9.332z" fill="#D1C396"/><path d="M21.32 32.608c-.557 0-1.01.48-1.01 1.074v.02c0 .594.453 1.075 1.01 1.075.559 0 1.011-.481 1.011-1.075v-.02c0-.593-.452-1.074-1.01-1.074zm9.097 0c-.558 0-1.01.48-1.01 1.074v.02c0 .594.452 1.075 1.01 1.075s1.01-.481 1.01-1.075v-.02c0-.593-.452-1.074-1.01-1.074zm8.791 0c-.558 0-1.01.48-1.01 1.074v.02c0 .594.452 1.075 1.01 1.075s1.01-.481 1.01-1.075v-.02c0-.593-.452-1.074-1.01-1.074zm-26.273 0c-.559 0-1.011.48-1.011 1.074v.02c0 .594.452 1.075 1.01 1.075.559 0 1.011-.481 1.011-1.075v-.02c0-.593-.452-1.074-1.01-1.074zm-7.121 0c-.558 0-1.01.48-1.01 1.074v.02c0 .594.452 1.075 1.01 1.075s1.01-.481 1.01-1.075v-.02c0-.593-.452-1.074-1.01-1.074zm40.434 0c-.558 0-1.01.48-1.01 1.074v.02c0 .594.452 1.075 1.01 1.075s1.01-.481 1.01-1.075v-.02c0-.593-.452-1.074-1.01-1.074z" fill="#D1C396"/></svg>