<svg width="29" height="50" viewBox="0 0 29 50" fill="none" xmlns="http://www.w3.org/2000/svg"><path d="M19.596 50a.488.488 0 01-.169-.03c-3.972-1.468-7.101-5.425-8.81-11.142-1.534-5.129-1.654-10.845-.321-15.29.71-2.369 1.669-4.69 2.596-6.933 2.06-4.985 4.191-10.14 3.597-15.977a.58.58 0 01.263-.556.49.49 0 01.575.046c2.862 2.398 4.071 6.41 3.595 11.926-.388 4.495-1.79 9.087-2.968 12.585-3.15 9.354-1.566 13.918 1.06 21.48.346.998.705 2.03 1.073 3.133a.6.6 0 01-.119.589.503.503 0 01-.372.169zM17.623 1.942c.183 5.539-1.828 10.406-3.779 15.125-.916 2.217-1.863 4.51-2.556 6.82-1.248 4.164-1.125 9.756.32 14.592 1.447 4.837 3.94 8.32 7.09 9.95-.224-.66-.446-1.297-.662-1.921-2.618-7.539-4.348-12.519-1.064-22.267 1.156-3.434 2.532-7.936 2.91-12.302.382-4.431-.378-7.786-2.26-9.997zm9.952 45.38a.485.485 0 01-.168-.03c-2.622-.97-4.684-3.57-5.806-7.324-1.002-3.35-1.08-7.088-.207-9.998.461-1.54 1.083-3.043 1.683-4.497 1.382-3.342 2.686-6.499 2.308-10.214a.58.58 0 01.264-.555.49.49 0 01.575.046c4.105 3.44 2.231 10.81.465 16.055-2.011 5.972-.997 8.893.684 13.733.224.645.455 1.312.693 2.026a.6.6 0 01-.118.588c-.1.11-.235.17-.373.17zm-1.08-30.678c-.025 3.388-1.263 6.383-2.465 9.292-.59 1.426-1.199 2.901-1.643 4.383-.795 2.652-.715 6.215.207 9.3.852 2.85 2.272 4.957 4.061 6.067l-.26-.75c-1.704-4.91-2.83-8.153-.687-14.518 1.49-4.424 3.087-10.44.786-13.774zM4.639 33.525a.493.493 0 01-.291-.096C2.047 31.758.676 28.667.489 24.727c-.167-3.517.651-7.15 2.189-9.715.814-1.358 1.773-2.636 2.7-3.872 2.133-2.84 4.148-5.524 4.67-9.219a.551.551 0 01.387-.462.5.5 0 01.545.205c3.143 4.474-.428 11.068-3.387 15.64-3.37 5.203-3.087 8.31-2.62 13.456.062.686.126 1.395.186 2.151a.58.58 0 01-.255.535.491.491 0 01-.265.079zm6.15-29.955c-.833 3.266-2.744 5.812-4.6 8.284-.91 1.213-1.852 2.467-2.635 3.774-1.401 2.338-2.176 5.802-2.022 9.041.142 2.992 1.01 5.424 2.473 6.999-.023-.27-.048-.535-.071-.797-.474-5.221-.787-8.67 2.804-14.217 2.496-3.855 5.476-9.218 4.05-13.084z" fill="#D1C396"/></svg>